<?xml version="1.0" encoding="UTF-8" standalone="no"?>
<!-- Created with Inkscape (http://www.inkscape.org/) -->

<svg
   xmlns:dc="http://purl.org/dc/elements/1.1/"
   xmlns:cc="http://creativecommons.org/ns#"
   xmlns:rdf="http://www.w3.org/1999/02/22-rdf-syntax-ns#"
   xmlns:svg="http://www.w3.org/2000/svg"
   xmlns="http://www.w3.org/2000/svg"
   xmlns:sodipodi="http://sodipodi.sourceforge.net/DTD/sodipodi-0.dtd"
   xmlns:inkscape="http://www.inkscape.org/namespaces/inkscape"
   width="826.5"
   height="826.5"
   id="svg4909"
   version="1.1"
   inkscape:version="0.48.4 r9939"
   sodipodi:docname="pyss15_training.svg">
  <defs
     id="defs4911" />
  <sodipodi:namedview
     id="base"
     pagecolor="#ffffff"
     bordercolor="#666666"
     borderopacity="1.0"
     inkscape:pageopacity="1"
     inkscape:pageshadow="2"
     inkscape:zoom="0.2788435"
     inkscape:cx="714.46112"
     inkscape:cy="629.85985"
     inkscape:document-units="px"
     inkscape:current-layer="layer1"
     showgrid="false"
     fit-margin-top="0"
     fit-margin-left="0"
     fit-margin-right="0"
     fit-margin-bottom="0"
     inkscape:window-width="602"
     inkscape:window-height="623"
     inkscape:window-x="203"
     inkscape:window-y="163"
     inkscape:window-maximized="0" />
  <metadata
     id="metadata4914">
    <rdf:RDF>
      <cc:Work
         rdf:about="">
        <dc:format>image/svg+xml</dc:format>
        <dc:type
           rdf:resource="http://purl.org/dc/dcmitype/StillImage" />
        <dc:title />
      </cc:Work>
    </rdf:RDF>
  </metadata>
  <g
     inkscape:label="Layer 1"
     inkscape:groupmode="layer"
     id="layer1"
     transform="translate(-98.292068,-267.90167)">
    <g
       transform="matrix(2.161842,0,0,2.161842,-195.20358,19.938645)"
       id="g5423">
      <path
         inkscape:connector-curvature="0"
         d="m 283.56661,193.41449 c -8.08346,0.88602 -15.74615,3.67657 -23.01613,7.2501 -3.75656,1.84652 -8.03298,3.11186 -10.99126,6.07328 -2.068,2.07021 5.43956,-2.1589 8.15934,-3.23835 -3.45472,3.19217 -6.90945,6.38434 -10.36417,9.5765 -2.97231,3.66444 -6.2785,7.08162 -8.91694,10.99332 -7.34909,10.89561 -12.74,24.53918 -10.77497,37.96298 1.68888,11.53726 5.15857,13.76904 11.92681,22.82032 3.80304,2.91779 7.29234,6.29799 11.4091,8.75336 17.98994,10.72982 40.75935,13.84667 61.16498,9.74051 4.69587,-0.94494 9.15884,-2.80928 13.73826,-4.21392 3.98592,-2.10701 9.14585,-2.79679 11.95774,-6.32103 2.08934,-2.61864 -8.30117,6.37685 -9.50925,3.25225 -1.39556,-3.6095 5.24141,-5.75684 7.26567,-9.05509 4.2179,-6.87245 6.03272,-13.48227 6.23471,-21.5197 0.1,-3.97804 -0.6896,-7.92867 -1.0344,-11.89301 -1.1323,-3.98137 -2.01847,-8.04112 -3.3969,-11.94412 -5.43658,-15.39353 -14.51504,-30.39268 -28.39106,-39.5755 -3.41646,-2.26093 -7.27156,-3.77627 -10.90734,-5.66441 -16.63381,-4.85352 -8.08676,-3.10399 -25.65936,-5.15884 0,0 18.33524,-12.97334 18.33524,-12.97334 l 0,0 c 17.95299,2.42189 9.21816,0.47573 26.22128,5.76272 3.73096,2.01654 7.6907,3.65772 11.19288,6.04963 17.94056,12.25297 27.24853,32.74748 32.66482,53.03615 1.05499,9.79531 2.45673,14.37862 -0.0109,24.08647 -6.26731,24.65614 -31.67987,35.38197 -52.67725,45.568 -4.62347,1.26415 -9.14764,2.97395 -13.87041,3.79245 -20.90687,3.62336 -43.96166,0.0385 -62.20529,-11.06272 -4.2675,-2.59677 -7.88044,-6.14149 -11.82066,-9.21224 -7.12929,-9.55071 -10.7603,-11.9506 -12.70563,-24.07135 -2.21111,-13.77671 2.9382,-27.96975 10.2738,-39.35969 2.58091,-4.00737 5.8556,-7.52279 8.78341,-11.28419 17.76893,-17.12802 8.8213,-9.82397 40.49091,-29.0011 10.87343,-6.58426 22.90348,-11.88006 35.6507,-13.13193 0,0 -19.21773,13.96249 -19.21773,13.96249 z"
         id="path4618"
         style="fill:#000000;fill-opacity:1;stroke:#4c7ae3;stroke-width:2.5999999;stroke-linecap:round;stroke-linejoin:round;stroke-miterlimit:4;stroke-opacity:0;stroke-dasharray:none" />
      <path
         inkscape:connector-curvature="0"
         d="m 348.41816,188.56948 c 10.35303,-1.31735 20.80136,-1.84849 31.1659,-0.31375 3.58232,0.53045 7.1262,1.39278 10.68931,2.08918 17.37667,4.44402 33.54768,13.36898 47.38358,26.99836 9.63305,9.48927 12.09077,13.80339 20.28104,25.0509 12.93983,20.27041 22.80213,43.20886 29.72373,67.43092 1.07073,3.74701 1.95252,7.57012 2.92878,11.35518 2.51827,11.51146 4.768,23.44284 3.70441,35.44018 -0.43971,4.96012 -1.00801,6.44908 -2.18148,10.99236 -1.67187,5.08943 -4.22014,9.36267 -7.81393,12.62486 0,0 -17.45019,8.22754 -17.45019,8.22754 l 0,0 c 3.95191,-2.41591 6.58899,-6.57095 8.56763,-11.33298 1.32028,-4.26899 1.99939,-5.84193 2.57838,-10.55819 1.4464,-11.7819 -0.66263,-23.62111 -2.99763,-35.00178 -0.9232,-3.77184 -1.74772,-7.58156 -2.76959,-11.31551 -6.59583,-24.10163 -16.21154,-46.92747 -29.0249,-67.01563 -8.17151,-11.15422 -10.47882,-15.26477 -20.12297,-24.60349 -13.80643,-13.36916 -29.94253,-21.94571 -47.23405,-25.92643 -3.5881,-0.60144 -7.16,-1.36942 -10.76429,-1.80433 -10.57991,-1.27659 -21.20012,-0.37874 -31.71637,1.20913 0,0 15.05264,-13.54652 15.05264,-13.54652 z"
         id="path4620"
         style="fill:#000000;fill-opacity:1;stroke:#4c7ae3;stroke-width:2.2563343;stroke-linecap:round;stroke-linejoin:round;stroke-miterlimit:4;stroke-opacity:0;stroke-dasharray:none" />
      <path
         inkscape:connector-curvature="0"
         d="m 200.45903,332.62465 c 25.01128,-1.93 50.04964,-3.41193 75.09379,-4.83504 34.65911,-1.88214 69.26078,-4.64573 103.87681,-7.17071 8.79862,-0.45278 17.56871,-1.73837 26.37636,-0.99449 0,0 -19.24162,13.75056 -19.24162,13.75056 l 0,0 c -8.44988,-0.61045 -16.89129,0.30436 -25.3374,0.65202 -34.43922,2.00094 -68.83276,4.6881 -103.271,6.70897 -25.53383,1.60613 -51.10862,3.10475 -76.51498,6.19185 0,0 19.01804,-14.30316 19.01804,-14.30316 z"
         id="path4622"
         style="fill:#000000;fill-opacity:1;stroke:#4c7ae3;stroke-width:2.5999999;stroke-linecap:round;stroke-linejoin:round;stroke-miterlimit:4;stroke-opacity:0;stroke-dasharray:none" />
      <path
         inkscape:connector-curvature="0"
         d="m 232.99871,341.04786 c 3.37437,18.0195 3.72887,36.43234 4.82159,54.68715 0.62663,12.16016 1.47298,24.32216 3.57922,36.32406 0,0 -20.81072,11.02085 -20.81072,11.02085 l 0,0 c -1.75359,-12.223 -2.41524,-24.55407 -3.01049,-36.88134 -1.03038,-17.95019 -1.35493,-36.14788 -5.42165,-53.73518 0,0 20.84205,-11.41554 20.84205,-11.41554 z"
         id="path4624"
         style="fill:#000000;fill-opacity:1;stroke:#4c7ae3;stroke-width:2.5999999;stroke-linecap:round;stroke-linejoin:round;stroke-miterlimit:4;stroke-opacity:0;stroke-dasharray:none" />
      <path
         inkscape:connector-curvature="0"
         d="m 374.74597,341.40861 c -7.46137,14.78444 -10.04003,31.47681 -12.76109,47.64977 -1.71446,10.89636 -2.66251,21.88562 -3.39856,32.88375 0,0 -20.86923,10.42745 -20.86923,10.42745 l 0,0 c 1.00635,-11.11865 2.07173,-22.23802 3.754,-33.27929 2.6483,-16.26613 5.26052,-32.75866 11.51256,-48.10472 0,0 21.76232,-9.57696 21.76232,-9.57696 z"
         id="path4626"
         style="fill:#000000;fill-opacity:1;stroke:#4c7ae3;stroke-width:2.5999999;stroke-linecap:round;stroke-linejoin:round;stroke-miterlimit:4;stroke-opacity:0;stroke-dasharray:none" />
      <path
         inkscape:connector-curvature="0"
         d="m 411.84273,241.48476 c -0.41737,12.10736 0.30273,24.20316 0.31979,36.31174 -0.2771,4.01902 -0.13504,6.78179 -1.63884,10.56565 -1.17014,2.94433 -3.56395,6.5075 -6.3068,8.23611 -22.21463,14.00021 -17.18756,11.82667 -31.68925,16.7387 -15.36122,4.40187 -31.14371,6.80967 -46.94508,8.932 -9.45597,1.22738 -18.95753,2.0471 -28.46962,2.67921 0,0 19.02083,-13.99752 19.02083,-13.99752 l 0,0 c 9.359,-0.51984 18.70335,-1.31202 27.99812,-2.54163 15.75333,-2.12627 31.51995,-4.59926 46.72102,-9.39709 9.04158,-3.57781 15.01411,-6.35206 -8.36712,6.41379 -1.48867,0.81279 2.8554,-1.87984 4.03922,-3.09448 3.74701,-3.84455 4.62886,-8.79825 4.83178,-13.94442 0.11572,-12.04741 -0.4978,-24.06395 -0.69976,-36.1074 0,0 21.18571,-10.79466 21.18571,-10.79466 z"
         id="path4638"
         style="fill:#000000;fill-opacity:1;stroke:#4c7ae3;stroke-width:2.5999999;stroke-linecap:round;stroke-linejoin:round;stroke-miterlimit:4;stroke-opacity:0;stroke-dasharray:none" />
      <path
         inkscape:connector-curvature="0"
         d="m 178.50481,214.333 c 2.3241,9.11844 5.93444,17.76268 10.29081,26.07392 5.05207,8.8702 8.74129,18.36779 12.50413,27.82304 2.52393,6.49587 4.69749,13.16508 8.25972,19.19494 1.49202,2.52557 3.18502,4.92689 4.77268,7.39346 2.92684,4.88918 5.76957,9.85747 8.12596,15.05034 1.10189,2.08762 0.59017,4.08782 3.27098,3.85881 6.98669,0.16876 13.97652,0.15456 20.96479,0.16326 10.36785,-0.0279 20.72209,-0.23304 31.07375,0.4111 4.10854,0.31863 2.19245,0.15485 5.74924,0.48003 0,0 -19.37975,13.79107 -19.37975,13.79107 l 0,0 c -3.4181,-0.36308 -1.57257,-0.18169 -5.53802,-0.52922 -10.27331,-0.66574 -20.56454,-0.38022 -30.85347,-0.37835 -7.20742,0.048 -14.47793,0.41456 -21.65663,-0.26537 -2.81715,-1.11 -3.51929,-3.07662 -4.3908,-5.84545 -2.18817,-5.13628 -4.98821,-10.00595 -7.72241,-14.86454 -1.59645,-2.53126 -3.30403,-4.99483 -4.80535,-7.58364 -3.55699,-6.1335 -5.75037,-12.88061 -8.33523,-19.44778 -3.7706,-9.36423 -7.41847,-18.7934 -12.41891,-27.59819 -4.38634,-8.3961 -8.01704,-17.09585 -10.7338,-26.18624 0,0 20.82231,-11.54119 20.82231,-11.54119 z"
         id="path4642"
         style="fill:#000000;fill-opacity:1;stroke:#4c7ae3;stroke-width:2.5999999;stroke-linecap:round;stroke-linejoin:round;stroke-miterlimit:4;stroke-opacity:0;stroke-dasharray:none" />
    </g>
  </g>
</svg>
