<?xml version="1.0" encoding="UTF-8" standalone="no"?>
<!-- Created with Inkscape (http://www.inkscape.org/) -->

<svg
   xmlns:dc="http://purl.org/dc/elements/1.1/"
   xmlns:cc="http://creativecommons.org/ns#"
   xmlns:rdf="http://www.w3.org/1999/02/22-rdf-syntax-ns#"
   xmlns:svg="http://www.w3.org/2000/svg"
   xmlns="http://www.w3.org/2000/svg"
   xmlns:sodipodi="http://sodipodi.sourceforge.net/DTD/sodipodi-0.dtd"
   xmlns:inkscape="http://www.inkscape.org/namespaces/inkscape"
   width="826.5"
   height="826.5"
   id="svg4909"
   version="1.1"
   inkscape:version="0.48.4 r9939"
   sodipodi:docname="pyss15_social.svg">
  <defs
     id="defs4911" />
  <sodipodi:namedview
     id="base"
     pagecolor="#ffffff"
     bordercolor="#666666"
     borderopacity="1.0"
     inkscape:pageopacity="1"
     inkscape:pageshadow="2"
     inkscape:zoom="0.19717213"
     inkscape:cx="930.43261"
     inkscape:cy="776.66627"
     inkscape:document-units="px"
     inkscape:current-layer="layer1"
     showgrid="false"
     fit-margin-top="0"
     fit-margin-left="0"
     fit-margin-right="0"
     fit-margin-bottom="0"
     inkscape:window-width="602"
     inkscape:window-height="623"
     inkscape:window-x="203"
     inkscape:window-y="163"
     inkscape:window-maximized="0" />
  <metadata
     id="metadata4914">
    <rdf:RDF>
      <cc:Work
         rdf:about="">
        <dc:format>image/svg+xml</dc:format>
        <dc:type
           rdf:resource="http://purl.org/dc/dcmitype/StillImage" />
        <dc:title />
      </cc:Work>
    </rdf:RDF>
  </metadata>
  <g
     inkscape:label="Layer 1"
     inkscape:groupmode="layer"
     id="layer1"
     transform="translate(-98.292068,-267.90167)">
    <g
       id="g4820"
       transform="matrix(1.3142175,0,0,1.3142175,38.814226,-10.451962)"
       style="fill:#000000;fill-opacity:1">
      <path
         inkscape:connector-curvature="0"
         d="m 377.13907,347.35563 c -12.78279,7.89406 -22.4699,20.05229 -30.17997,32.77691 -2.71034,4.47312 -5.00675,9.1843 -7.51012,13.77645 -9.94756,22.59772 -14.08284,46.99128 -8.79006,71.39731 3.67407,16.94182 7.12976,21.45282 14.80259,36.81642 3.8661,5.27127 7.32768,10.86459 11.5983,15.81381 15.45044,17.90549 36.84338,32.44154 60.49453,36.40907 5.47112,0.91779 11.07543,0.66082 16.61315,0.99123 15.82145,-2.50535 18.89356,-1.86673 33.74999,-8.87848 5.54441,-2.61678 11.39354,-5.08959 15.89867,-9.24793 1.79109,-1.65322 -8.20165,3.45288 -7.20868,1.22687 2.47299,-5.54388 8.73181,-8.4775 12.54865,-13.19787 3.735,-4.61916 6.68826,-9.81909 10.0324,-14.72863 2.45612,-5.31447 5.38474,-10.43512 7.36838,-15.94342 6.16191,-17.11078 7.24537,-35.11747 2.91993,-52.81415 -3.90442,-15.97416 -7.57197,-20.382 -15.44914,-34.73283 -4.02245,-5.24021 -7.63819,-10.81936 -12.06735,-15.72062 -13.52175,-14.96298 -30.76579,-26.1571 -49.49265,-33.49228 -16.61977,-6.50984 -22.1032,-6.49727 -39.51024,-9.39287 -6.3481,-0.27858 -12.69621,-0.55715 -19.04432,-0.83572 0,0 20.64876,-14.83695 20.64876,-14.83695 l 0,0 c 6.36436,0.39046 12.72871,0.78091 19.09307,1.17137 17.52047,3.1609 23.16374,3.26688 39.88368,9.9902 19.03439,7.65399 36.42314,19.16422 50.17092,34.45612 4.50224,5.00792 8.2022,10.68278 12.3033,16.02418 8.12876,14.6521 11.86948,19.13365 16.022,35.44505 4.59382,18.04483 3.82081,36.48841 -2.19019,54.09249 -1.92439,5.63585 -4.81658,10.89335 -7.22487,16.34003 -6.4786,9.888 -12.75033,21.23488 -22.34686,28.69034 -11.49703,8.93195 -23.99261,16.51127 -36.29555,24.29582 -10.88485,6.88728 -20.82808,11.82187 -33.43243,14.78994 -5.66104,1.33307 -11.53306,1.5121 -17.29959,2.26815 -5.62774,-0.48569 -11.33666,-0.38796 -16.88322,-1.45706 -23.99205,-4.62447 -45.47949,-19.64901 -61.10432,-38.01193 -4.32575,-5.08379 -7.84654,-10.80094 -11.76981,-16.2014 -7.84638,-15.64383 -11.36751,-20.29819 -15.27855,-37.51938 -5.60504,-24.68024 -1.93887,-49.45558 7.64207,-72.59934 2.39155,-4.63288 4.58541,-9.37327 7.17465,-13.89863 7.23383,-12.64301 16.3071,-24.96713 28.39135,-33.33902 0,0 25.72153,-9.92325 25.72153,-9.92325 z"
         id="path4796"
         style="fill:#000000;fill-opacity:1;stroke:#4c7ae3;stroke-width:2.5999999;stroke-linecap:round;stroke-linejoin:round;stroke-miterlimit:4;stroke-opacity:0;stroke-dasharray:none" />
      <path
         inkscape:connector-curvature="0"
         d="m 377.71451,334.12141 c 19.33526,-7.13025 38.40907,-14.94545 57.34829,-23.06354 26.34801,-11.61152 52.07615,-24.56403 78.07176,-36.93382 0,0 -20.23134,16.11588 -20.23134,16.11588 l 0,0 c -26.01822,12.32941 -51.77437,25.22771 -78.12137,36.84886 -19.44735,8.36905 -39.04293,16.37485 -58.75905,24.09014 0,0 21.69171,-17.05752 21.69171,-17.05752 z"
         id="path4798"
         style="fill:#000000;fill-opacity:1;stroke:#4c7ae3;stroke-width:2.5999999;stroke-linecap:round;stroke-linejoin:round;stroke-miterlimit:4;stroke-opacity:0;stroke-dasharray:none" />
      <path
         inkscape:connector-curvature="0"
         d="m 526.39053,271.14199 c 15.72909,-0.81869 31.56548,3.75114 45.464,10.97863 4.24451,2.20723 8.16054,4.99566 12.24081,7.49349 18.24837,13.09251 32.08704,30.96512 41.02154,51.51167 1.27192,2.92502 2.26489,5.96358 3.39734,8.94537 0,0 -23.32934,12.93871 -23.32934,12.93871 l 0,0 c -1.03948,-2.94287 -1.93685,-5.93986 -3.11844,-8.82861 -8.31225,-20.3218 -21.80616,-37.81408 -39.85398,-50.4107 -4.03169,-2.37714 -7.89936,-5.05742 -12.09505,-7.13141 -13.76498,-6.80422 -30.20244,-11.43075 -45.54773,-8.54461 0,0 21.82085,-16.95254 21.82085,-16.95254 z"
         id="path4800"
         style="fill:#000000;fill-opacity:1;stroke:#4c7ae3;stroke-width:2.5999999;stroke-linecap:round;stroke-linejoin:round;stroke-miterlimit:4;stroke-opacity:0;stroke-dasharray:none" />
      <path
         inkscape:connector-curvature="0"
         d="m 450.22942,575.95789 c 3.44339,-3.57585 6.40261,-7.65841 10.05908,-11.03134 2.5154,-2.32035 3.63803,-2.88364 6.53956,-4.79775 18.04561,-10.06571 33.73224,-23.39564 49.06916,-37.09907 30.47718,-27.76072 57.23102,-59.21484 84.28595,-90.22346 16.38456,-19.20408 8.32537,-9.82637 24.16951,-28.14005 0,0 23.57076,-9.95484 23.57076,-9.95484 l 0,0 c -16.09959,18.38438 -7.92949,8.95963 -24.4982,28.28472 -27.03023,30.85898 -53.59595,62.28495 -83.66164,90.28537 -14.78682,13.5873 -29.82804,27.04678 -47.42892,36.94907 -1.39961,0.83268 -5.36183,3.11422 -6.71743,4.2017 -3.81708,3.06212 -6.59237,7.29308 -9.96041,10.79441 0,0 -25.42742,10.73124 -25.42742,10.73124 z"
         id="path4802"
         style="fill:#000000;fill-opacity:1;stroke:#4c7ae3;stroke-width:2.5999999;stroke-linecap:round;stroke-linejoin:round;stroke-miterlimit:4;stroke-opacity:0;stroke-dasharray:none" />
      <path
         inkscape:connector-curvature="0"
         d="m 398.40868,446.34394 c 6.59631,-3.68271 12.97565,-7.78427 19.78894,-11.04812 2.09318,-1.00272 -3.76188,2.72644 -5.5375,4.2211 -2.45305,2.0649 -4.83697,4.21525 -7.13776,6.44855 -7.14778,6.93813 -12.27794,12.59476 -18.36997,20.7069 -3.67249,4.8903 -6.98181,10.04306 -10.47272,15.06459 -21.15433,34.04947 -33.54859,72.57386 -40.41244,111.90274 -1.25275,7.17809 -1.99505,14.43597 -2.99257,21.65396 -0.33325,6.31463 -0.66649,12.62926 -0.99974,18.94389 0,0 -22.71569,11.40736 -22.71569,11.40736 l 0,0 c 0.41314,-6.43153 0.82629,-12.86307 1.23943,-19.29461 1.05948,-7.30826 1.88076,-14.65504 3.17843,-21.92479 7.01331,-39.28955 18.87352,-77.99104 39.29654,-112.47304 3.34438,-5.03153 6.5163,-10.18206 10.03313,-15.0946 6.23345,-8.70728 10.30934,-13.32894 17.53992,-20.76585 2.50285,-2.57427 8.45537,-8.5213 11.94806,-10.74205 8.90185,-5.66003 18.06577,-10.89693 27.09866,-16.34539 0,0 -21.48472,17.33936 -21.48472,17.33936 z"
         id="path4804"
         style="fill:#000000;fill-opacity:1;stroke:#4c7ae3;stroke-width:2.5999999;stroke-linecap:round;stroke-linejoin:round;stroke-miterlimit:4;stroke-opacity:0;stroke-dasharray:none" />
      <path
         inkscape:connector-curvature="0"
         d="m 301.71525,691.52791 c -3.77004,7.13062 -4.42517,16.17859 0.73272,22.90814 1.06806,1.39351 2.51673,2.44879 3.7751,3.67318 6.61595,4.46715 14.62059,6.14433 22.13112,2.63828 1.80287,-0.84161 6.80391,-4.09728 4.9966,-3.26526 -6.39967,2.94615 -12.54395,6.41809 -18.81592,9.62713 7.56829,-10.00491 5.14093,-15.23774 -3.05468,-23.29828 0,0 23.31513,-14.26408 23.31513,-14.26408 l 0,0 c 6.20301,6.47999 11.34969,12.87909 7.58749,22.34625 -0.69116,1.73921 -1.83071,3.26477 -2.74607,4.89715 -9.1268,5.9151 -18.14224,12.00567 -27.3804,17.74528 -9.55034,5.93357 -20.45061,4.2268 -29.2081,-2.23448 -1.38809,-1.438 -2.97465,-2.70794 -4.16428,-4.314 -5.41339,-7.30833 -5.6922,-17.00814 -2.37205,-25.1882 0,0 25.20334,-11.27111 25.20334,-11.27111 z"
         id="path4806"
         style="fill:#000000;fill-opacity:1;stroke:#4c7ae3;stroke-width:2.5999999;stroke-linecap:round;stroke-linejoin:round;stroke-miterlimit:4;stroke-opacity:0;stroke-dasharray:none" />
      <path
         inkscape:connector-curvature="0"
         d="m 297.61989,723.35608 c -6.93044,9.61756 -10.90028,20.82311 -12.59929,32.46993 0,0 -24.38436,12.00478 -24.38436,12.00478 l 0,0 c 1.56752,-11.92699 5.4122,-23.26167 11.63917,-33.6055 0,0 25.34448,-10.86921 25.34448,-10.86921 z"
         id="path4808"
         style="fill:#000000;fill-opacity:1;stroke:#4c7ae3;stroke-width:2.5999999;stroke-linecap:round;stroke-linejoin:round;stroke-miterlimit:4;stroke-opacity:0;stroke-dasharray:none" />
      <path
         inkscape:connector-curvature="0"
         d="m 356.15591,717.40826 c -1.93525,10.67264 -4.04741,21.30213 -7.28564,31.66181 -1.74309,4.40221 -3.175,9.0261 -5.86647,12.98358 -7.3663,10.83125 -23.88054,16.90233 -33.08468,22.30906 -8.74892,3.59367 -18.26928,4.12355 -27.57839,4.89859 -11.05321,0.92025 -7.73512,0.65086 -18.85439,1.433 -7.6641,0.51567 -15.33133,0.9597 -23.00374,1.32699 0,0 21.81784,-16.00056 21.81784,-16.00056 l 0,0 c 7.55379,-0.31136 15.10791,-0.63133 22.65057,-1.159 7.77687,-0.57576 11.1351,-0.77703 18.8898,-1.53992 9.31423,-0.91632 18.84405,-1.82883 27.31334,-6.14615 -37.6768,22.33649 -19.02352,13.10048 -13.17188,5.93207 2.99047,-3.66339 4.4624,-8.22208 6.32788,-12.4844 3.44132,-10.10632 5.62886,-20.58099 7.00097,-31.16769 0,0 24.84479,-12.04738 24.84479,-12.04738 z"
         id="path4810"
         style="fill:#000000;fill-opacity:1;stroke:#4c7ae3;stroke-width:2.5999999;stroke-linecap:round;stroke-linejoin:round;stroke-miterlimit:4;stroke-opacity:0;stroke-dasharray:none" />
      <path
         inkscape:connector-curvature="0"
         d="m 167.27939,436.6443 c -10.98853,10.93635 -16.72838,26.32493 -20.37196,41.13297 -1.18157,4.80207 -1.88457,9.70939 -2.82686,14.56408 -0.49154,5.15335 -1.30659,10.28604 -1.47461,15.46005 -0.61747,19.01485 2.45295,40.50697 14.07866,56.23991 2.41729,3.2713 5.67741,5.82631 8.51611,8.73947 3.39738,1.76586 6.5543,4.10322 10.19215,5.29758 7.9949,2.62484 15.89747,2.29276 23.90692,-0.0683 4.46789,-1.31706 8.47088,-3.89805 12.83667,-5.52183 3.22494,-1.19946 -10.54765,7.49337 -9.40829,4.24671 1.79343,-5.11043 7.88499,-7.42688 11.82749,-11.14032 3.4079,-4.33692 7.18409,-8.40822 10.22369,-13.01078 9.54169,-14.44801 17.12044,-34.27012 9.01437,-51.16672 -1.67476,-3.49093 -4.4844,-6.31315 -6.72661,-9.46972 -9.43699,-7.79475 -10.21843,-9.47992 -21.8213,-14.62347 -4.39651,-1.94897 -9.06907,-3.20359 -13.60361,-4.80539 0,0 21.55726,-14.55059 21.55726,-14.55059 l 0,0 c 4.63161,1.70123 9.40624,3.05465 13.89482,5.10369 12.11927,5.53245 12.77862,7.19059 22.66362,15.49871 6.31939,9.01042 9.21235,10.76926 10.58529,22.10679 1.78427,14.73416 -4.20512,29.56625 -11.90573,41.74537 -2.97383,4.70335 -6.69279,8.89196 -10.03919,13.33794 -19.10094,19.09775 -12.29825,14.1338 -46.74713,32.85043 -7.71214,4.19013 -17.45347,6.83279 -26.31185,6.40172 -11.08204,-0.53928 -13.33327,-3.26506 -22.58155,-8.55518 -2.90985,-3.12779 -6.24242,-5.90999 -8.72957,-9.38338 -11.67245,-16.30098 -14.98109,-38.17304 -14.58393,-57.72819 0.10618,-5.22795 0.85623,-10.42294 1.28434,-15.63441 0.84687,-4.90765 1.46099,-9.8612 2.5406,-14.72295 3.30296,-14.87401 8.61202,-30.10047 18.44217,-41.95242 0,0 25.56803,-10.39177 25.56803,-10.39177 z"
         id="path4812"
         style="fill:#000000;fill-opacity:1;stroke:#4c7ae3;stroke-width:2.5999999;stroke-linecap:round;stroke-linejoin:round;stroke-miterlimit:4;stroke-opacity:0;stroke-dasharray:none" />
      <path
         inkscape:connector-curvature="0"
         d="m 142.90207,576.97522 c -12.20609,19.41745 -19.64943,41.22137 -26.73213,62.88599 -9.4519,32.10012 -17.448358,64.68526 -22.880986,97.71366 0,0 -23.483617,11.46674 -23.483617,11.46674 l 0,0 c 5.91754,-33.09014 13.948353,-65.79755 22.987444,-98.16497 6.713011,-21.56146 13.926109,-43.05567 24.924849,-62.88238 0,0 25.18444,-11.01904 25.18444,-11.01904 z"
         id="path4814"
         style="fill:#000000;fill-opacity:1;stroke:#4c7ae3;stroke-width:2.5999999;stroke-linecap:round;stroke-linejoin:round;stroke-miterlimit:4;stroke-opacity:0;stroke-dasharray:none" />
      <path
         inkscape:connector-curvature="0"
         d="m 232.99282,561.55305 c -0.4657,1.48238 -1.0919,2.9236 -1.3971,4.44714 -3.78633,18.9014 3.66392,41.32921 8.26643,59.41583 7.15515,28.43609 17.08861,56.9419 17.72556,86.56554 0.0851,3.95635 -0.33618,7.90738 -0.50427,11.86107 -2.34352,11.57546 -0.66854,6.32897 -4.61383,15.86486 0,0 -24.55229,11.19319 -24.55229,11.19319 l 0,0 c 4.66801,-9.00049 2.6489,-3.98303 5.59547,-15.23011 0.31574,-3.90857 0.90899,-7.80459 0.94721,-11.72571 0.28796,-29.54545 -9.58962,-58.13646 -17.12068,-86.30908 -5.09438,-18.54043 -12.80364,-40.33337 -10.39175,-59.89482 0.19003,-1.54123 0.70694,-3.02427 1.06041,-4.5364 0,0 24.98484,-11.65151 24.98484,-11.65151 z"
         id="path4816"
         style="fill:#000000;fill-opacity:1;stroke:#4c7ae3;stroke-width:2.5999999;stroke-linecap:round;stroke-linejoin:round;stroke-miterlimit:4;stroke-opacity:0;stroke-dasharray:none" />
      <path
         inkscape:connector-curvature="0"
         d="m 179.64131,632.22788 c 21.71505,-1.61089 41.91981,7.17804 61.50378,15.3117 17.90609,7.86373 35.06552,17.53921 50.46551,29.64449 3.13232,2.46218 6.07099,5.1612 9.10648,7.74181 0,0 -22.37958,13.94772 -22.37958,13.94772 l 0,0 c -2.94543,-2.55914 -5.78693,-5.24305 -8.83628,-7.67741 -15.14703,-12.09219 -32.15949,-21.62918 -49.96257,-29.20281 -19.60237,-7.8516 -40.21259,-16.44981 -61.79325,-13.1399 0,0 21.89591,-16.6256 21.89591,-16.6256 z"
         id="path4818"
         style="fill:#000000;fill-opacity:1;stroke:#4c7ae3;stroke-width:2.5999999;stroke-linecap:round;stroke-linejoin:round;stroke-miterlimit:4;stroke-opacity:0;stroke-dasharray:none" />
    </g>
  </g>
</svg>
