<?xml version="1.0" encoding="UTF-8" standalone="no"?>
<!-- Created with Inkscape (http://www.inkscape.org/) -->

<svg
   xmlns:dc="http://purl.org/dc/elements/1.1/"
   xmlns:cc="http://creativecommons.org/ns#"
   xmlns:rdf="http://www.w3.org/1999/02/22-rdf-syntax-ns#"
   xmlns:svg="http://www.w3.org/2000/svg"
   xmlns="http://www.w3.org/2000/svg"
   xmlns:sodipodi="http://sodipodi.sourceforge.net/DTD/sodipodi-0.dtd"
   xmlns:inkscape="http://www.inkscape.org/namespaces/inkscape"
   width="826.5"
   height="826.5"
   id="svg4909"
   version="1.1"
   inkscape:version="0.48.4 r9939"
   sodipodi:docname="pyss15_surprise.svg">
  <defs
     id="defs4911" />
  <sodipodi:namedview
     id="base"
     pagecolor="#ffffff"
     bordercolor="#666666"
     borderopacity="1.0"
     inkscape:pageopacity="1"
     inkscape:pageshadow="2"
     inkscape:zoom="0.2788435"
     inkscape:cx="559.00404"
     inkscape:cy="608.85214"
     inkscape:document-units="px"
     inkscape:current-layer="layer1"
     showgrid="false"
     fit-margin-top="0"
     fit-margin-left="0"
     fit-margin-right="0"
     fit-margin-bottom="0"
     inkscape:window-width="602"
     inkscape:window-height="623"
     inkscape:window-x="203"
     inkscape:window-y="163"
     inkscape:window-maximized="0" />
  <metadata
     id="metadata4914">
    <rdf:RDF>
      <cc:Work
         rdf:about="">
        <dc:format>image/svg+xml</dc:format>
        <dc:type
           rdf:resource="http://purl.org/dc/dcmitype/StillImage" />
        <dc:title />
      </cc:Work>
    </rdf:RDF>
  </metadata>
  <g
     inkscape:label="Layer 1"
     inkscape:groupmode="layer"
     id="layer1"
     transform="translate(-98.292068,-267.90167)">
    <g
       transform="matrix(0.83527852,0,0,0.83527852,1068.2091,-248.32689)"
       id="g5176">
      <path
         inkscape:connector-curvature="0"
         d="m -806.40729,1223.933 c 3.78944,-7.1136 7.76308,-14.1275 11.90195,-21.0433 3.21976,-4.5064 5.85966,-9.407 9.10376,-13.8905 6.43911,-8.3257 7.99473,-8.1115 25.83709,-11.1023 2.22117,-0.3723 -2.92286,3.4311 -4.48866,5.0499 -2.58029,2.6676 -5.29526,5.2016 -7.94289,7.8024 -31.95633,29.2182 -64.79003,57.4544 -96.76039,86.6595 -3.84333,3.705 -7.68666,7.41 -11.52999,11.1149 0,0 -23.84814,9.8128 -23.84814,9.8128 l 0,0 c 4.02416,-3.8017 8.04833,-7.6033 12.07249,-11.4049 31.81167,-28.7386 64.24358,-56.7954 95.57853,-86.0571 2.49526,-2.4785 5.04012,-4.9081 7.48578,-7.4356 1.45041,-1.4989 2.38839,-3.6034 4.19857,-4.6396 42.9573,-24.5904 32.49652,-19.4345 24.7857,-10.6909 -3.56129,4.2784 -5.97559,9.2787 -9.39039,13.6819 -4.22836,6.7634 -8.22917,13.6757 -11.87257,20.7728 0,0 -25.13084,11.37 -25.13084,11.37 z"
         id="path4693"
         style="fill:#000000;fill-opacity:1;stroke:#4c7ae3;stroke-width:2.5999999;stroke-linecap:round;stroke-linejoin:round;stroke-miterlimit:4;stroke-opacity:0;stroke-dasharray:none" />
      <path
         inkscape:connector-curvature="0"
         d="m -866.29386,1288.6683 c 26.64327,2.9333 52.94068,8.452 79.16552,13.8774 42.30865,9.717 84.96777,17.6427 127.779,24.7612 21.10071,3.2673 11.10886,1.7742 29.9707,4.5115 0,0 -21.41947,15.0567 -21.41947,15.0567 l 0,0 c -18.39577,-3.1293 -8.62514,-1.459 -29.31082,-5.0173 -42.75486,-7.5447 -85.42573,-15.513 -127.84102,-24.8086 -26.62879,-5.2358 -53.43067,-10.8377 -80.5933,-12.2158 0,0 22.24939,-16.1651 22.24939,-16.1651 z"
         id="path4695"
         style="fill:#000000;fill-opacity:1;stroke:#4c7ae3;stroke-width:2.5999999;stroke-linecap:round;stroke-linejoin:round;stroke-miterlimit:4;stroke-opacity:0;stroke-dasharray:none" />
      <path
         inkscape:connector-curvature="0"
         d="m -518.80042,1199.7781 c -19.58427,25.8409 -40.22494,50.8644 -60.95073,75.7921 -14.40895,17.02 -7.46447,8.8743 -20.82047,24.4481 0,0 -23.9275,10.11 -23.9275,10.11 l 0,0 c 13.76835,-15.6885 6.64315,-7.4877 21.35471,-24.6203 20.41948,-24.3956 40.77915,-48.9295 59.22135,-74.8716 0,0 25.12264,-10.8583 25.12264,-10.8583 z"
         id="path4697"
         style="fill:#000000;fill-opacity:1;stroke:#4c7ae3;stroke-width:2.5999999;stroke-linecap:round;stroke-linejoin:round;stroke-miterlimit:4;stroke-opacity:0;stroke-dasharray:none" />
      <path
         inkscape:connector-curvature="0"
         d="m -756.31795,1162.1679 c 25.61084,1.3885 51.25932,1.8485 76.88584,2.924 45.65107,2.283 91.32703,4.1229 136.9434,7.0393 6.41065,0.5921 12.82129,1.1842 19.23193,1.7763 0,0 -20.70702,14.7415 -20.70702,14.7415 l 0,0 c -6.30203,-0.6382 -12.60406,-1.2764 -18.90609,-1.9146 -45.67356,-3.1185 -91.41908,-4.9734 -137.16036,-6.7914 -26.1663,-0.8112 -52.3388,-1.2128 -78.51371,-1.627 0,0 22.22601,-16.1481 22.22601,-16.1481 z"
         id="path4699"
         style="fill:#000000;fill-opacity:1;stroke:#4c7ae3;stroke-width:2.5999999;stroke-linecap:round;stroke-linejoin:round;stroke-miterlimit:4;stroke-opacity:0;stroke-dasharray:none" />
      <path
         inkscape:connector-curvature="0"
         d="m -622.35913,1338.3421 c 3.43472,27.4745 6.55156,54.9836 9.42963,82.5217 2.57256,23.4634 4.98446,46.9432 7.24733,70.4383 0,0 -23.67797,12.3002 -23.67797,12.3002 l 0,0 c -1.46098,-23.6865 -3.50141,-47.3329 -6.17615,-70.9148 -2.98039,-27.2705 -6.09412,-54.5707 -11.13047,-81.5514 0,0 24.30763,-12.794 24.30763,-12.794 z"
         id="path4701"
         style="fill:#000000;fill-opacity:1;stroke:#4c7ae3;stroke-width:2.5999999;stroke-linecap:round;stroke-linejoin:round;stroke-miterlimit:4;stroke-opacity:0;stroke-dasharray:none" />
      <path
         inkscape:connector-curvature="0"
         d="m -497.11416,1195.4502 c -0.53144,2.1473 -1.18383,4.2682 -1.59432,6.4418 -2.39527,12.6833 -2.82482,25.7134 -3.27792,38.5746 -0.0698,1.9821 -0.86737,34.1228 -0.90508,35.6329 -0.77722,23.9565 -0.58434,47.9301 -1.10592,71.8897 0,0 -23.76465,11.9962 -23.76465,11.9962 l 0,0 c 1.28726,-24.0912 1.39482,-48.2287 2.08683,-72.3413 0.53448,-26.846 -0.31937,-53.9484 3.66571,-80.5666 0,0 24.89535,-11.6272 24.89535,-11.6272 z"
         id="path4703"
         style="fill:#000000;fill-opacity:1;stroke:#4c7ae3;stroke-width:2.5999999;stroke-linecap:round;stroke-linejoin:round;stroke-miterlimit:4;stroke-opacity:0;stroke-dasharray:none" />
      <path
         inkscape:connector-curvature="0"
         d="m -615.0623,1556.5639 c 5.03825,-17.3137 14.21953,-32.8491 23.75451,-47.9951 10.37853,-16.3492 21.2389,-32.4654 33.51493,-47.4673 5.33414,-6.5186 11.95238,-13.754 17.6158,-20.0585 0,0 24.22227,-10.1698 24.22227,-10.1698 l 0,0 c -5.34176,5.8177 -13.00253,14.034 -17.97757,20.007 -12.31407,14.7842 -23.10061,30.8031 -33.30953,47.0847 -9.27031,14.708 -18.28711,29.7872 -23.02218,46.6641 0,0 -24.79823,11.9349 -24.79823,11.9349 z"
         id="path4705"
         style="fill:#000000;fill-opacity:1;stroke:#4c7ae3;stroke-width:2.5999999;stroke-linecap:round;stroke-linejoin:round;stroke-miterlimit:4;stroke-opacity:0;stroke-dasharray:none" />
      <path
         inkscape:connector-curvature="0"
         d="m -870.28814,1308.1514 c -1.43523,25.5696 1.81153,51.0879 5.25029,76.3684 4.04435,26.6162 9.05442,53.123 16.06188,79.1243 0,0 -23.1198,12.5231 -23.1198,12.5231 l 0,0 c -6.45188,-26.3062 -11.22173,-53.001 -15.53495,-79.7338 -3.68498,-25.1888 -7.03258,-50.4741 -7.31527,-75.9754 0,0 24.65785,-12.3066 24.65785,-12.3066 z"
         id="path4707"
         style="fill:#000000;fill-opacity:1;stroke:#4c7ae3;stroke-width:2.5999999;stroke-linecap:round;stroke-linejoin:round;stroke-miterlimit:4;stroke-opacity:0;stroke-dasharray:none" />
      <path
         inkscape:connector-curvature="0"
         d="m -812.95841,1483.1187 c 28.2966,7.3059 56.21823,15.9081 84.1131,24.6003 43.37214,14.0314 87.51802,25.4131 131.46389,37.4484 0,0 -21.17828,14.5121 -21.17828,14.5121 l 0,0 c -43.5898,-12.7335 -87.46764,-24.4891 -130.85251,-37.9267 -28.56526,-8.4848 -57.16242,-16.9152 -86.34217,-23.0662 0,0 22.79597,-15.5679 22.79597,-15.5679 z"
         id="path4709"
         style="fill:#000000;fill-opacity:1;stroke:#4c7ae3;stroke-width:2.5999999;stroke-linecap:round;stroke-linejoin:round;stroke-miterlimit:4;stroke-opacity:0;stroke-dasharray:none" />
      <path
         inkscape:connector-curvature="0"
         d="m -563.38204,1349.441 c 17.72881,-1.8731 35.61298,0 53.23743,2.063 26.59989,3.1788 52.90385,8.1731 78.97724,14.2533 8.86045,2.1677 17.69833,4.5113 26.36546,7.3699 2.61844,0.8636 6.25107,1.7358 8.3826,3.6931 -21.77602,16.1449 -17.10904,17.0799 -30.79832,13.807 -1.24959,-0.05 -0.61528,-0.019 -1.90287,-0.094 0,0 22.63362,-16.0976 22.63362,-16.0976 l 0,0 c 1.41784,0.2009 0.70071,0.07 2.15021,0.3984 12.11781,3.0818 13.38231,-2.1932 -15.70676,16.6162 -1.42786,-1.2654 -5.75583,-2.68 -7.06713,-3.1509 -8.40633,-3.0188 -17.04373,-5.3752 -25.69268,-7.5751 -25.98396,-6.1896 -52.24592,-11.0945 -78.82105,-13.9705 -17.82038,-1.8329 -35.95778,-3.58 -53.77738,-0.795 0,0 22.01963,-16.5176 22.01963,-16.5176 z"
         id="path4711"
         style="fill:#000000;fill-opacity:1;stroke:#4c7ae3;stroke-width:2.5999999;stroke-linecap:round;stroke-linejoin:round;stroke-miterlimit:4;stroke-opacity:0;stroke-dasharray:none" />
      <path
         inkscape:connector-curvature="0"
         d="m -702.99591,1292.5458 c -1.33191,2.0005 16.58531,-9.665 12.59381,-6.9021 -4.87675,3.3758 -9.31946,8.3629 -14.87572,9.6193 -3.74943,0.848 6.13632,-5.3615 9.02701,-8.2966 8.2515,-8.3782 9.39356,-10.6404 16.471,-20.2766 9.40124,-14.9744 19.0545,-34.0182 14.26992,-53.5052 -0.72969,-2.9719 -2.20163,-5.6184 -3.30244,-8.4276 -1.64605,-2.3835 -3.04381,-5.0376 -4.93816,-7.1504 -7.36949,-8.219 -18.77781,-12.5646 -28.83218,-10.2347 -2.15226,0.4989 -4.12489,1.7585 -6.18734,2.6377 39.06557,-24.8422 11.46278,-13.0174 13.31352,1.4001 0.58924,4.5903 2.12715,4.9169 5.02497,7.6279 6.83951,3.0885 14.06687,2.9277 21.09013,0.5011 3.03051,-1.047 11.27151,-6.4775 8.7793,-4.1943 -4.43166,4.0599 -9.34526,7.7358 -14.72345,9.6399 -3.21722,1.139 5.31732,-4.8341 7.97599,-7.251 10.04264,-11.4824 20.32544,-25.8108 19.91888,-43.3746 -0.0612,-2.643 -0.66699,-5.2293 -1.00049,-7.8439 -3.47189,-11.1179 -9.26047,-23.1792 -19.05719,-28.0551 -1.48769,-0.7404 -3.13714,-0.9075 -4.70572,-1.3613 -1.4081,0.1305 -2.86551,-0.062 -4.22432,0.3914 -1.23514,0.4125 -4.52093,2.867 -3.3902,2.1513 7.23703,-4.5801 14.21933,-9.7668 21.70905,-13.7449 0.7936,-0.4214 -0.98217,1.7767 -1.08993,2.7934 -0.3286,3.1005 1.17644,4.1091 2.73425,6.2678 1.42163,0.843 2.74671,1.9656 4.26492,2.5293 11.62159,4.3141 25.24858,0.029 35.80054,-5.9387 3.9117,-2.2122 7.52869,-5.0835 11.29304,-7.6253 -3.94008,2.0797 -10.24365,10.9698 -11.82023,6.2391 -1.69152,-5.0758 6.98687,-7.184 10.19409,-11.1185 8.21508,-10.0782 15.89806,-22.0747 19.91428,-35.3681 0.98507,-3.2605 1.36096,-6.7329 2.04144,-10.0994 -0.0871,-2.8125 0.15412,-5.666 -0.26121,-8.4378 -1.48979,-9.942 -8.78289,-15.9893 -16.42371,-19.0494 -2.01723,-0.808 -4.13814,-1.199 -6.20722,-1.7986 -5.45373,-0.054 -6.78538,-0.6277 -12.0321,1.5624 -1.88607,0.7872 -7.11984,4.2949 -5.3914,3.1081 36.00256,-24.7227 20.46677,-14.7702 14.55971,-8.2742 -1.05015,1.1548 -1.91042,2.5277 -2.86563,3.7915 -1.53009,3.8858 -1.38169,2.0251 -1.00283,5.4812 0,0 -24.94931,15.7338 -24.94931,15.7338 l 0,0 c -1.18125,-5.4026 -1.16835,-2.646 0.12067,-8.2689 9.65696,-14.9999 19.2943,-18.0473 36.00471,-28.7994 5.70342,-3.6698 12.21984,-3.9424 18.47748,-2.8571 2.15866,0.7539 4.37896,1.2965 6.476,2.2617 8.46948,3.898 16.08929,11.1632 17.83859,22.1933 0.48524,3.0596 0.2747,6.2165 0.41206,9.3249 -0.67078,3.5965 -1.01777,7.2982 -2.01233,10.7893 -3.91255,13.7334 -11.62998,26.1381 -19.86936,36.6924 -3.15918,4.0469 -6.23159,8.3186 -10.04278,11.4941 -10.97751,9.1463 -22.75865,16.8779 -34.13799,25.3169 -3.89189,2.4501 -7.63813,5.2519 -11.6757,7.3503 -11.22417,5.8334 -25.93576,9.8428 -37.87689,4.2716 -1.78779,-0.8341 -3.29897,-2.3273 -4.94846,-3.4908 -2.35329,-3.4549 -3.79381,-4.4142 -4.10121,-8.9485 -0.97891,-14.4398 23.01289,-21.1095 27.02508,-23.8099 1.18009,-0.7942 2.60688,-1.025 3.9633,-1.1321 1.54355,-0.1218 3.08333,0.3029 4.62499,0.4543 1.67275,0.7171 3.43468,1.194 5.01821,2.1514 10.14221,6.1318 16.34394,18.4011 20.12695,30.5421 1.13468,7.72 1.98282,9.6282 0.80614,17.5871 -2.17592,14.7174 -10.24662,26.5618 -18.86534,36.9288 -15.82303,15.5389 -10.57741,11.3006 -40.20956,29.4817 -7.48411,4.592 -17.57267,6.3589 -25.84114,4.1281 -2.16701,-0.5847 -4.13326,-1.9291 -6.19989,-2.8936 -1.41883,-1.5232 -3.11957,-2.748 -4.2565,-4.5695 -2.10156,-3.3668 -2.63715,-7.2726 -2.13,-11.3039 2.1874,-17.3878 25.93699,-24.9282 33.80549,-30.5648 2.18575,-0.6187 4.32096,-1.5853 6.55725,-1.8559 10.84441,-1.3125 22.43603,3.8052 30.15068,12.7772 2.01231,2.3402 3.50635,5.2261 5.25953,7.8392 1.21735,3.0904 2.82257,6.0077 3.65206,9.2711 5.15152,20.2671 -3.93642,40.2766 -13.67023,56.1845 -2.55351,3.617 -4.95948,7.3857 -7.66053,10.8511 -17.04236,21.8653 -39.56539,36.9881 -62.88189,47.7203 0,0 22.36554,-20.264 22.36554,-20.264 z"
         id="path4713"
         style="fill:#000000;fill-opacity:1;stroke:#4c7ae3;stroke-width:2.89650202;stroke-linecap:round;stroke-linejoin:round;stroke-miterlimit:4;stroke-opacity:0;stroke-dasharray:none" />
      <path
         inkscape:connector-curvature="0"
         d="m -539.26145,871.33682 c 4.96015,-7.7333 12.03641,-13.45872 20.05175,-17.82366 32.64611,-17.77821 20.52451,-14.08518 41.13449,-18.92961 12.38314,-1.57845 25.33837,-0.13095 33.7127,10.26165 5.22714,6.48692 5.15417,9.67198 7.26724,17.59655 0.0347,3.47309 0.46001,6.96429 0.10418,10.41929 -1.09197,10.60281 -5.86023,20.28049 -13.05523,28.06286 -5.91599,6.39895 -9.52451,8.1328 -16.72487,12.84784 -18.65375,10.22443 -39.35954,26.22213 -61.9527,17.27409 -7.57463,-2.99993 -9.86556,-6.08944 -15.71545,-11.45645 -5.08246,-6.50564 -6.90755,-7.94288 -10.13628,-15.47792 -1.04303,-2.43417 -1.61072,-5.04558 -2.41608,-7.56836 0,0 23.60293,-12.9147 23.60293,-12.9147 l 0,0 c 0.68523,2.39586 1.12241,4.87702 2.05571,7.18757 2.92152,7.23278 4.70246,8.55379 9.56469,14.71849 2.29403,2.02912 4.35927,4.35092 6.88209,6.08737 5.41547,3.72746 10.52353,5.54512 17.09911,5.95916 3.21029,0.20214 6.45734,-0.0622 9.63275,-0.57558 3.33486,-0.53916 11.37913,-5.55534 9.80405,-2.56684 -2.47284,4.69186 -8.77499,5.95932 -13.16248,8.93898 7.15542,-4.32376 11.02926,-6.08894 17.04425,-12.0175 7.27385,-7.16934 12.39366,-16.22611 13.77829,-26.4313 0.43832,-3.23051 0.10397,-6.51939 0.15595,-9.77908 -1.859,-7.26688 -1.73402,-10.29569 -6.60893,-16.16228 -8.04288,-9.67903 -20.66168,-10.03677 -32.08944,-8.2084 -16.7705,4.63339 -8.5647,3.39692 5.04951,-6.9013 2.20491,-1.66787 -4.90206,2.57417 -7.22408,4.07471 -5.00992,3.2375 -9.34149,7.24271 -12.64949,12.21334 0,0 -25.20466,11.17108 -25.20466,11.17108 z"
         id="path4715"
         style="fill:#000000;fill-opacity:1;stroke:#4c7ae3;stroke-width:2.5999999;stroke-linecap:round;stroke-linejoin:round;stroke-miterlimit:4;stroke-opacity:0;stroke-dasharray:none" />
      <path
         inkscape:connector-curvature="0"
         d="m -667.28098,804.01864 c -1.37705,-5.86276 -5.02592,-12.03438 -11.70379,-12.67113 -1.64922,-0.15726 -3.30444,0.24341 -4.95666,0.36512 1.51134,-2.72879 -18.18439,8.31817 -13.93747,5.65376 4.46139,-2.79897 8.63659,-6.96708 13.86869,-7.56993 3.89033,-0.44825 -6.41664,4.51113 -9.39444,7.0544 -8.8913,7.59384 -9.27988,9.08423 -16.38207,18.29463 -9.078,15.0124 -14.358,32.19319 -10.22767,49.77159 2.65592,11.30339 5.35627,13.57705 11.60523,22.98796 8.55001,8.10394 9.4462,10.10858 20.05821,15.54856 3.71876,1.90633 7.74354,3.14497 11.61531,4.71745 0,0 -21.83674,14.57727 -21.83674,14.57727 l 0,0 c -3.94463,-1.70459 -8.04998,-3.07718 -11.8339,-5.11378 -10.91562,-5.87505 -11.811,-7.93507 -20.61838,-16.49265 -6.4434,-9.83464 -9.27311,-12.36086 -12.16046,-24.07347 -4.43959,-18.00927 0.33015,-35.78497 9.25242,-51.51611 2.45548,-3.3724 4.67019,-6.93402 7.36645,-10.1172 4.148,-4.8971 12.28329,-12.56363 17.81056,-16.05722 3.45154,-2.18159 28.10683,-18.19361 40.12173,-22.20987 2.17267,-0.72627 4.47771,-0.97051 6.71656,-1.45576 1.85785,0.12277 3.75786,-0.0439 5.57356,0.36832 7.12141,1.61681 11.42592,8.12336 13.28311,14.69438 0,0 -24.22025,13.24368 -24.22025,13.24368 z"
         id="path4719"
         style="fill:#000000;fill-opacity:1;stroke:#4c7ae3;stroke-width:2.5999999;stroke-linecap:round;stroke-linejoin:round;stroke-miterlimit:4;stroke-opacity:0;stroke-dasharray:none" />
      <path
         inkscape:connector-curvature="0"
         d="m -677.01562,788.14529 c -6.14227,-8.09314 -8.63564,-17.68452 -10.20746,-27.53086 -1.93993,-13.21883 1.01639,-26.2699 9.09089,-37.03796 1.94133,-2.58892 4.27329,-4.86046 6.40994,-7.2907 13.77867,-13.56376 30.19053,-21.78083 47.26408,-31.18794 4.44889,-2.45123 12.14431,-5.41334 17.13722,-6.69671 2.52951,-0.65018 5.14235,-0.91695 7.71352,-1.37542 2.31187,0.0755 4.65541,-0.16215 6.93561,0.22658 10.44309,1.78034 16.25444,9.99957 20.65496,18.74109 0.53293,1.3198 1.87611,5.25993 3.15077,6.62041 0.36445,0.38899 0.94745,0.81685 1.45676,0.65957 0.65763,-0.20309 1.99309,-1.84905 1.38029,-1.53569 -7.14463,3.65348 -13.92498,7.99465 -21.08741,11.61312 -1.37415,0.69422 2.4431,-1.87408 3.66465,-2.81112 6.73419,-5.83037 13.59938,-11.55145 20.84033,-16.74939 1.96647,-1.41163 3.89204,-2.89777 5.98857,-4.10783 9.70059,-5.59893 19.58646,-10.87053 29.37969,-16.3058 2.01666,-0.49537 3.98754,-1.24392 6.04998,-1.4861 8.88844,-1.04375 13.7268,2.91464 17.80105,10.1218 0.95804,1.97624 1.01327,5.96034 3.4479,7.05484 2.65794,1.1949 7.48547,-0.53882 9.92794,-1.09848 10.56679,-2.93113 20.69144,-7.74069 31.59167,-9.43748 1.95794,-0.30479 3.94917,-0.33137 5.92375,-0.49705 1.725,0.2685 3.52124,0.24621 5.175,0.8055 7.92265,2.67942 10.13991,10.07924 10.6564,17.48381 0.54216,-0.81264 -0.17412,3.70255 1.09127,3.64068 0.44944,-0.022 0.47861,-0.77006 0.79108,-1.09385 0.56842,-0.58901 2.55934,-2.0147 1.83707,-1.62953 -16.95375,9.041 -27.82685,16.55516 -16.85139,9.11441 10.89293,-7.91062 22.73591,-14.18199 35.14288,-19.63462 1.88244,-0.8273 7.21999,1.13507 8.66022,2.17423 1.29884,0.93713 2.16686,2.35914 3.2503,3.53871 0.64186,1.61434 1.59382,3.13774 1.9256,4.84303 2.33258,11.98899 -7.73386,22.49301 -15.18789,30.34788 -11.62468,10.86902 -25.74592,17.33406 -39.84492,24.94038 -3.80887,2.05486 -8.12207,2.96897 -12.33082,3.71706 -2.03003,0.47296 -3.49624,0.0706 -5.24893,-0.8539 0,0 23.04173,-15.49843 23.04173,-15.49843 l 0,0 c 1.39571,0.20395 2.74334,0.0324 4.12929,-0.25917 2.86141,-0.6657 3.78168,-0.78924 6.73055,-1.93401 1.63366,-0.6342 6.28008,-3.06835 4.82008,-2.0991 -5.66988,3.76408 -11.6421,7.05204 -17.4997,10.51675 -1.96753,1.16378 3.97696,-2.27296 5.82863,-3.61342 1.937,-1.40223 3.67301,-3.06298 5.50951,-4.59447 6.61081,-6.46632 17.59545,-17.03231 16.19879,-27.39059 -0.18333,-1.3597 -0.94867,-2.57479 -1.42301,-3.86218 -2.47332,-2.37402 -2.48961,-3.1616 -6.15614,-3.52541 -1.33908,-0.13287 -5.09677,1.09633 -4.02729,0.27961 6.0372,-4.61044 12.94075,-7.95986 19.37395,-11.99942 1.26745,-0.79586 -2.62502,1.4447 -3.87522,2.26739 -1.23508,0.81274 -2.38011,1.75467 -3.57017,2.632 -11.05457,7.80856 -8.45499,6.12051 -30.14492,18.09594 -4.27829,2.36213 -6.48135,-2.07468 -6.56127,-5.58012 0.009,-6.20842 -1.47483,-12.57883 -8.50718,-14.26506 -1.53943,-0.36913 -3.15604,-0.25258 -4.73405,-0.37887 -1.87777,0.23312 -3.77339,0.35141 -5.6333,0.69937 -10.93071,2.04493 -21.07145,6.94199 -31.86536,9.4939 -8.99776,1.30223 -13.25983,0.96124 -15.40221,-8.70119 -5.24491,-9.56617 -11.5749,-8.68677 -21.16417,-5.50882 5.6166,-3.45252 11.16798,-7.01347 16.84981,-10.35756 2.07993,-1.22417 -4.05918,2.61387 -6.03867,3.99456 -7.20032,5.0222 -14.07346,10.59573 -20.55936,16.5008 -10.29034,8.97063 -7.40101,6.83782 -29.83861,18.20847 -0.83326,0.42227 -1.921,-0.0449 -2.7678,-0.43932 -3.123,-1.45461 -3.77485,-5.94078 -4.97961,-8.64128 -3.94923,-8.09522 -9.0633,-15.29742 -18.8523,-16.34158 -2.15915,-0.23031 -4.34189,0.0889 -6.51283,0.13331 -7.49396,1.60828 -8.11817,1.40237 -15.53235,4.5031 -2.91336,1.21841 -11.04892,6.00625 -8.55563,4.06828 4.29997,-3.34227 9.06233,-6.15211 14.05011,-8.339 6.20167,-2.71912 -22.90289,13.95282 -16.03274,12.47556 -2.16213,2.28756 -4.49943,4.42144 -6.48641,6.86269 -8.14297,10.00461 -11.58585,22.36041 -9.62464,35.08521 1.50106,9.38721 3.69959,18.67453 9.98197,26.13493 0,0 -23.75005,14.09446 -23.75005,14.09446 z"
         id="path4721"
         style="fill:#000000;fill-opacity:1;stroke:#4c7ae3;stroke-width:2.5999999;stroke-linecap:round;stroke-linejoin:round;stroke-miterlimit:4;stroke-opacity:0;stroke-dasharray:none" />
      <path
         inkscape:connector-curvature="0"
         d="m -679.97949,788.23005 c 14.78136,-10.03856 30.28297,-19.02121 46.0746,-27.36778 1.47947,-0.22007 3.77831,-2.9173 5.50353,-2.29225 2.29774,0.83247 2.85963,4.60338 3.422,6.51429 3.23746,8.02247 9.03034,14.11437 16.94949,17.73907 2.22741,1.01952 4.62069,1.62861 6.93103,2.44291 20.51975,4.39452 40.04825,-3.28838 58.40043,-11.76076 22.54181,-12.58467 -6.53169,3.6618 -7.67318,4.19526 -2.12511,0.99312 3.88262,-2.63662 5.75744,-4.04637 3.81719,-2.87027 7.24153,-6.15922 10.79626,-9.33238 8.63529,-4.77532 16.94033,-10.20394 25.90587,-14.32595 0.895,-0.41149 1.88395,0.63821 2.71492,1.16721 0.71653,0.45615 5.40097,4.69839 5.80609,5.04353 4.72299,4.02366 3.21032,2.78764 8.80897,6.18723 14.1099,6.35702 30.14179,6.59598 45.12809,3.41009 3.88652,-0.82623 7.66384,-2.10155 11.49576,-3.15233 -6.67558,6.06024 27.41818,-13.75525 21.09732,-9.36754 -4.53869,3.1506 -9.41551,5.85983 -14.48401,8.05899 -2.38764,1.03596 4.34119,-2.88729 6.35753,-4.53301 4.06983,-3.32179 3.63189,-3.25043 5.79353,-7.13889 0,0 24.91462,-11.35533 24.91462,-11.35533 l 0,0 c -0.54529,1.37738 -0.81487,2.89906 -1.63586,4.13213 -2.2641,3.40051 -7.33797,7.33279 -10.56715,9.29984 -17.07166,10.39916 -33.43646,20.73356 -52.38771,26.93196 -3.9077,0.9782 -7.76547,2.18349 -11.7231,2.93461 -15.64515,2.96931 -32.26058,2.41563 -46.78851,-4.50192 -1.72715,-1.07162 -3.51206,-2.0553 -5.18143,-3.21485 -4.84273,-3.36376 -2.92011,-2.63508 -7.17946,-5.73298 -0.68485,-0.4981 -1.3639,-1.06309 -2.17101,-1.31939 -0.57602,-0.18292 -2.31766,0.38588 -1.81226,0.0545 6.95268,-4.55881 14.24191,-8.58243 21.36286,-12.87364 -3.85772,3.09547 -7.25701,6.66375 -11.15724,9.71679 -13.46597,10.54093 -28.92366,18.2515 -43.97768,26.26241 -18.95676,8.32623 -39.06093,15.51151 -59.92515,10.30705 -2.43556,-0.93216 -4.95788,-1.66332 -7.30667,-2.79647 -8.43897,-4.07131 -14.58428,-10.7512 -18.40942,-19.20582 -0.2641,-0.83028 -0.52238,-1.66243 -0.79229,-2.49085 -0.0805,-0.2471 -0.0439,-0.58945 -0.25888,-0.73541 -0.13111,-0.089 -0.0484,0.34323 -0.17105,0.44356 -0.29228,0.23905 -0.6702,0.34806 -1.00657,0.5196 -3.33463,1.70056 0.15007,-0.10101 -3.93746,2.02463 -9.87919,5.30855 -2.4468,1.35726 16.72927,-9.85107 1.37186,-0.80185 -2.7825,1.53685 -4.14449,2.35534 -1.06673,0.64104 -7.20489,4.59316 -8.18919,5.24128 -1.15278,0.75906 -2.2889,1.5431 -3.43336,2.31466 0,0 -25.63648,10.09806 -25.63648,10.09806 z"
         id="path4723"
         style="fill:#000000;fill-opacity:1;stroke:#4c7ae3;stroke-width:2.5999999;stroke-linecap:round;stroke-linejoin:round;stroke-miterlimit:4;stroke-opacity:0;stroke-dasharray:none" />
      <path
         inkscape:connector-curvature="0"
         d="m -590.59156,829.04707 c 3.56797,-0.0598 7.19699,0.43956 10.72436,-0.34099 0.50047,-0.11074 1.84348,-0.87745 1.4215,-0.58648 -23.47852,16.18922 -14.2381,15.19309 -25.2991,16.06797 -2.4481,0.2093 -5.26242,-0.33402 -7.19276,1.45453 0,0 21.76623,-17.24756 21.76623,-17.24756 l 0,0 c 2.62469,-0.26157 5.25119,-0.49252 7.89359,-0.36144 10.77844,1.64968 3.66617,0.065 -19.19059,16.90435 -0.65501,0.48257 -8.08123,0.24028 -8.63658,0.23135 -1.3174,-0.0212 -2.63414,-0.0729 -3.95121,-0.10941 0,0 22.46456,-16.01232 22.46456,-16.01232 z"
         id="path4725"
         style="fill:#000000;fill-opacity:1;stroke:#4c7ae3;stroke-width:2.5999999;stroke-linecap:round;stroke-linejoin:round;stroke-miterlimit:4;stroke-opacity:0;stroke-dasharray:none" />
      <path
         inkscape:connector-curvature="0"
         d="m -472.39081,806.54058 c -1.97645,0.37903 -4.22158,0.7038 -6.09315,1.49803 -0.93291,0.3959 -3.52485,2.00207 -2.64185,1.50472 7.09916,-4.00418 14.19832,-8.00836 21.29748,-12.01254 -0.48066,0.45179 -1.07213,0.80916 -1.44199,1.35539 -0.25405,0.3752 -0.24187,0.87336 -0.3628,1.31004 2.88666,4.09064 8.25882,5.62125 12.72038,7.34394 0,0 -22.61837,15.15715 -22.61837,15.15715 l 0,0 c -5.58899,-2.29421 -11.63239,-4.35889 -14.72119,-9.95195 -0.12322,-0.96639 -0.52018,-1.93665 -0.36966,-2.89917 0.12884,-0.82383 0.46826,-1.75953 1.1689,-2.21164 12.83426,-8.28161 21.44865,-15.27591 35.07583,-17.76144 0,0 -22.01358,16.66747 -22.01358,16.66747 z"
         id="path4727"
         style="fill:#000000;fill-opacity:1;stroke:#4c7ae3;stroke-width:2.5999999;stroke-linecap:round;stroke-linejoin:round;stroke-miterlimit:4;stroke-opacity:0;stroke-dasharray:none" />
      <path
         inkscape:connector-curvature="0"
         d="m -475.52933,943.92734 c -14.83668,16.10034 -33.66905,26.12686 -52.93889,36.35084 -2.65044,1.40629 -5.60023,2.15569 -8.40034,3.23349 -16.7135,4.9392 -34.11998,3.9792 -50.69861,-1.1028 -3.5377,-1.08451 -6.94531,-2.55506 -10.41797,-3.83256 -12.7382,-5.58306 -24.53213,-12.99721 -34.15784,-23.06035 0,0 23.23282,-14.1305 23.23282,-14.1305 l 0,0 c 9.1504,10.02107 20.43646,17.01547 32.87204,22.37382 3.41603,1.19668 6.76954,2.58952 10.24807,3.59003 16.45602,4.73316 33.63227,5.09324 49.9375,-0.37437 8.7018,-3.67804 20.53277,-9.13531 -6.88423,5.61452 -2.50359,1.34688 4.78538,-3.07788 7.07211,-4.76694 3.36455,-2.48518 8.13121,-6.64431 11.2255,-9.59954 1.22297,-1.16801 2.36178,-2.42106 3.54267,-3.63159 0,0 25.36717,-10.66405 25.36717,-10.66405 z"
         id="path4729"
         style="fill:#000000;fill-opacity:1;stroke:#4c7ae3;stroke-width:2.5999999;stroke-linecap:round;stroke-linejoin:round;stroke-miterlimit:4;stroke-opacity:0;stroke-dasharray:none" />
      <path
         inkscape:connector-curvature="0"
         d="m -697.77575,918.00109 c -0.87282,-0.21537 -1.72083,-0.59652 -2.61847,-0.64612 -5.66778,-0.31317 -39.9644,17.63044 15.18878,-9.98825 1.13213,-0.56693 -1.99869,1.57575 -2.84195,2.52024 -0.91765,1.02781 -1.60525,2.23989 -2.40788,3.35984 -6.51421,13.00774 -1.89606,21.67823 5.23594,33.12458 15.00811,20.04501 35.26058,30.69032 57.34387,41.27102 22.80001,9.8233 46.85135,18.1461 71.88062,19.312 4.62893,0.2157 9.26749,-0.086 13.90124,-0.1295 18.63764,-1.2449 35.80822,-7.9236 52.19716,-16.4991 4.46118,-2.3342 9.08795,-4.4457 13.17852,-7.3814 2.66698,-1.914 -5.91084,2.8578 -8.86627,4.2867 19.19371,-13.6038 36.49706,-30.3511 47.85316,-51.17656 1.9055,-3.49441 3.41487,-7.19067 5.12231,-10.78601 5.01237,-13.28021 7.74231,-27.67531 4.07086,-41.6988 -2.06576,-7.89039 -3.96343,-9.98289 -8.05817,-16.82794 -8.69025,-10.85366 -19.82534,-19.3939 -31.16599,-27.30084 -4.17832,-2.73536 -2.13261,-1.44585 -6.12902,-3.8814 0,0 23.0874,-14.86974 23.0874,-14.86974 l 0,0 c 3.98634,2.58316 1.96128,1.21483 6.06564,4.11909 11.36807,8.37464 22.52688,17.35176 31.23177,28.56367 4.24472,7.19291 6.24734,9.49639 8.46201,17.74022 3.88747,14.47058 1.39665,29.40873 -3.59627,43.23508 -1.69891,3.6945 -3.19864,7.48727 -5.09673,11.0835 -11.20413,21.22808 -28.51271,38.39982 -47.75367,52.41663 -22.78034,13.7556 -48.8372,31.8291 -75.08586,39.7285 -11.31445,3.405 -14.90147,3.2677 -26.62624,4.5854 -4.67624,-0.043 -9.3617,0.1684 -14.02873,-0.128 -25.19405,-1.6006 -49.34368,-10.1844 -72.33386,-20.0653 -22.78601,-10.8739 -43.16871,-21.6035 -58.85038,-42.07921 -1.50382,-2.34325 -3.17163,-4.58902 -4.51146,-7.02975 -4.90907,-8.94266 -6.83124,-19.05326 -2.5596,-28.58658 7.43314,-13.34389 12.0244,-11.97237 31.2689,-22.18032 2.84762,-1.51048 6.68386,-0.27042 9.4481,0.62122 0,0 -23.00573,15.28713 -23.00573,15.28713 z"
         id="path4731"
         style="fill:#000000;fill-opacity:1;stroke:#4c7ae3;stroke-width:2.5999999;stroke-linecap:round;stroke-linejoin:round;stroke-miterlimit:4;stroke-opacity:0;stroke-dasharray:none" />
      <path
         inkscape:connector-curvature="0"
         d="m -677.91903,820.42695 c -2.27244,12.0691 -8.43072,23.77919 -7.42861,36.34456 0.20126,2.52353 1.03248,4.95669 1.54872,7.43504 0,0 -23.68386,12.7102 -23.68386,12.7102 l 0,0 c -0.59902,-2.67685 -1.52283,-5.30124 -1.79707,-8.03055 -1.26007,-12.54075 4.53215,-24.25972 6.6061,-36.35679 0,0 24.75472,-12.10246 24.75472,-12.10246 z"
         id="path4733"
         style="fill:#000000;fill-opacity:1;stroke:#4c7ae3;stroke-width:2.5999999;stroke-linecap:round;stroke-linejoin:round;stroke-miterlimit:4;stroke-opacity:0;stroke-dasharray:none" />
      <path
         inkscape:connector-curvature="0"
         d="m -550.94707,1366.4391 c 14.76792,-0.1073 28.67251,5.3428 42.2074,10.6233 12.42182,5.2215 24.98568,10.3355 38.06247,13.7055 7.48515,1.9289 10.45607,2.2837 17.97262,3.572 7.00836,1.15 14.04731,1.667 21.13389,1.8274 0,0 -22.00171,15.8514 -22.00171,15.8514 l 0,0 c -7.06096,-0.4036 -14.07436,-1.116 -21.04914,-2.3438 -7.47904,-1.4097 -10.60558,-1.8518 -18.05459,-3.8745 -13.07389,-3.5501 -25.60698,-8.8083 -38.13203,-13.8972 -13.55027,-5.006 -27.60405,-10.2844 -42.31776,-9.01 0,0 22.17885,-16.4541 22.17885,-16.4541 z"
         id="path4735"
         style="fill:#000000;fill-opacity:1;stroke:#4c7ae3;stroke-width:2.5999999;stroke-linecap:round;stroke-linejoin:round;stroke-miterlimit:4;stroke-opacity:0;stroke-dasharray:none" />
      <path
         inkscape:connector-curvature="0"
         d="m -432.53203,1395.1176 c -10.97618,3.2685 -21.38162,8.033 -31.34799,13.6298 5.53286,-3.092 10.89249,-6.5167 16.59857,-9.2759 2.24217,-1.0842 -4.15445,2.7518 -6.16014,4.2283 -7.854,5.7817 -15.08013,12.4285 -22.28131,18.9855 -7.55416,7.0308 -15.17775,14.0125 -21.58567,22.1285 -2.19645,2.8133 -4.57155,5.4787 -7.01584,8.0769 -1.27771,1.3779 -0.17305,1.07 -2.07893,-3.0454 0,0 -21.8634,17.2642 -21.8634,17.2642 l 0,0 c -2.78781,-3.8933 -3.31791,-2.4522 -1.7832,-3.6287 2.74381,-2.3718 5.12573,-5.1344 7.51557,-7.8506 6.43047,-8.366 14.04011,-15.6031 21.81024,-22.7206 7.21541,-6.6171 14.44917,-13.3744 22.22228,-19.3419 10.46504,-8.034 26.572,-16.4112 35.6102,-21.7418 10.28557,-5.5209 20.99527,-10.2507 32.23033,-13.5058 0,0 -21.87071,16.7975 -21.87071,16.7975 z"
         id="path4737"
         style="fill:#000000;fill-opacity:1;stroke:#4c7ae3;stroke-width:2.5999999;stroke-linecap:round;stroke-linejoin:round;stroke-miterlimit:4;stroke-opacity:0;stroke-dasharray:none" />
      <path
         inkscape:connector-curvature="0"
         d="m -526.99227,1464.3522 c 10.06768,-6.2463 13.45317,-8.3939 29.23046,-16.6633 1.80443,-0.9457 5.35926,-0.8725 7.24476,-0.5494 3.22256,0.5523 4.65815,1.5062 7.58988,2.9181 3.58632,1.8485 6.65116,4.4707 9.60548,7.1788 1.70296,1.561 2.10596,2.4282 4.23879,3.2273 0.652,0.2443 1.36786,0.2609 2.05179,0.3914 0.77783,-0.1954 1.59202,-0.2806 2.33349,-0.5863 1.018,-0.4196 3.86146,-2.1181 2.90467,-1.5731 -6.50577,3.7054 -12.95567,7.5135 -19.55214,11.055 -1.7162,0.9214 3.30161,-2.0711 4.89781,-3.1875 2.55133,-1.7845 9.7535,-7.3223 12.00104,-9.0365 12.87189,-10.4268 25.9226,-20.6241 38.38875,-31.5388 8.20783,-7.4883 16.23281,-15.1972 23.83107,-23.3064 1.33726,-0.401 6.97555,-10.1861 7.28087,-10.3026 0,0 24.65771,-12.8587 24.65771,-12.8587 l 0,0 c 0.11503,0.4709 0.3887,0.93 0.3451,1.4128 -0.25143,2.7845 -5.48661,9.0377 -7.0674,11.1816 -7.56275,8.3555 -15.87737,16.0134 -24.08904,23.7201 -12.43778,11.0165 -25.58634,21.1541 -38.38881,31.7354 -5.3153,4.0995 -10.56479,8.9593 -16.36831,12.3835 -9.09891,5.3686 -18.22114,10.7079 -27.52827,15.7068 -1.06599,0.5726 -2.29868,0.8232 -3.50102,0.9593 -0.98311,0.1114 -1.97296,-0.1518 -2.95944,-0.2277 -0.80662,-0.3378 -1.6569,-0.586 -2.41987,-1.0134 -4.80819,-2.6931 -7.92895,-8.3651 -13.46218,-10.1493 -3.49424,-1.3574 -6.46754,-2.4242 -10.26653,-1.5505 -1.10732,0.2547 -4.172,1.7501 -3.21108,1.1437 5.86341,-3.6999 28.9015,-17.2359 17.9759,-10.4636 0,0 -25.76348,9.9933 -25.76348,9.9933 z"
         id="path4739"
         style="fill:#000000;fill-opacity:1;stroke:#4c7ae3;stroke-width:2.5999999;stroke-linecap:round;stroke-linejoin:round;stroke-miterlimit:4;stroke-opacity:0;stroke-dasharray:none" />
      <path
         inkscape:connector-curvature="0"
         d="m -410.98045,1363.7084 c 6.87967,1.6651 11.55051,6.3861 16.04429,11.5178 0,0 -23.25645,14.0717 -23.25645,14.0717 l 0,0 c -4.49706,-4.9295 -8.54467,-8.6685 -15.39113,-9.7805 0,0 22.60329,-15.809 22.60329,-15.809 z"
         id="path4741"
         style="fill:#000000;fill-opacity:1;stroke:#4c7ae3;stroke-width:2.5999999;stroke-linecap:round;stroke-linejoin:round;stroke-miterlimit:4;stroke-opacity:0;stroke-dasharray:none" />
      <path
         inkscape:connector-curvature="0"
         d="m -827.39655,1423.3372 c 1.85772,-7.8001 4.07786,-15.7001 8.90479,-22.2511 1.30212,-1.7673 2.82809,-3.358 4.24214,-5.037 7.3816,-7.8906 16.33735,-14.0969 25.70321,-19.3982 31.06343,-17.5824 20.05657,-12.7002 37.73437,-20.0037 7.9341,-2.6314 16.2495,-6.7167 24.87632,-5.9187 4.26416,0.3944 5.69634,1.4417 9.45223,3.1887 8.55024,7.0099 10.02523,15.0517 6.0059,25.3867 -0.9386,2.4135 -2.34068,4.62 -3.51103,6.93 -8.2897,14.0038 -18.42585,23.5731 -32.00217,32.2269 -70.00859,40.4877 -12.88066,7.4008 -8.67038,5.1145 1.04073,-0.5651 -1.96101,1.34 -2.84516,2.1279 -2.7729,2.471 -3.23702,4.9546 -3.82241,8.4794 -0.5199,10.6202 0.0298,21.2697 0.4987,31.8845 0.11841,2.6069 0.2625,5.2124 0.41508,7.8175 0,0 -24.61177,12.6448 -24.61177,12.6448 l 0,0 c -0.0249,-2.6598 -0.0565,-5.3194 -0.10881,-7.9788 -0.22217,-10.7378 -0.71838,-21.4703 -0.76171,-32.2104 0.2875,-3.8374 0.29021,-7.3152 2.95249,-10.3769 9.95454,-11.4481 55.60271,-31.0092 11.698,-7.7266 4.41065,-2.6181 7.15752,-4.0841 11.29833,-7.2531 8.53185,-6.5296 15.66522,-14.6588 21.39546,-23.7235 1.21374,-2.1248 2.63643,-4.1432 3.64123,-6.3744 2.80548,-6.2297 3.89732,-13.8043 -1.0892,-19.217 -0.93354,-1.0134 -2.13792,-1.7386 -3.20689,-2.6079 -1.34906,-0.5246 -2.64453,-1.2164 -4.04719,-1.5737 -9.75351,-2.4844 -19.71414,2.7581 -28.65423,5.8237 -14.04366,6.1436 -6.28291,3.1225 8.37687,-6.2719 2.38838,-1.5306 -4.99548,2.6967 -7.40541,4.1931 -2.95604,1.8355 -10.46612,7.1317 -13.19942,9.4178 -1.81838,1.5209 -3.4494,3.2527 -5.17411,4.879 -2.86001,3.1223 -5.41036,5.5469 -7.56375,9.2054 -2.96731,5.0413 -4.3665,10.9267 -5.67669,16.5556 0,0 -24.84479,12.0474 -24.84479,12.0474 z"
         id="path4743"
         style="fill:#000000;fill-opacity:1;stroke:#4c7ae3;stroke-width:2.5999999;stroke-linecap:round;stroke-linejoin:round;stroke-miterlimit:4;stroke-opacity:0;stroke-dasharray:none" />
      <path
         inkscape:connector-curvature="0"
         d="m -741.69798,1174.4874 c 0.67851,28.4208 3.12937,56.673 5.90049,84.7924 2.11116,20.7565 0.92976,10.7895 3.47673,29.9178 0,0 -23.15345,18.174 -23.15345,18.174 l 0,0 c -2.37665,-19.4349 -1.27108,-9.3502 -3.26305,-30.2667 -2.75292,-27.9947 -5.30001,-56.0453 -7.02779,-84.2196 0,0 24.06707,-18.3979 24.06707,-18.3979 z"
         id="path4745"
         style="fill:#000000;fill-opacity:1;stroke:#4c7ae3;stroke-width:3.10758233;stroke-linecap:round;stroke-linejoin:round;stroke-miterlimit:4;stroke-opacity:0;stroke-dasharray:none" />
      <path
         inkscape:connector-curvature="0"
         d="m -899.6135,1302.4815 c -7.35301,-8.0367 -15.34416,-15.3768 -24.84076,-20.8306 -3.20258,-1.8393 -6.5498,-3.4143 -9.82469,-5.1214 -23.44329,-10.6915 -48.28276,-17.8873 -72.93155,-25.2099 -6.1763,-2.0106 -11.863,-3.1253 -17.598,-6.1447 0,0 22.9792,-15.0105 22.9792,-15.0105 l 0,0 c 5.20173,2.9191 10.99045,4.1817 16.592,6.1768 24.56546,7.909 49.47312,15.1172 73.06812,25.6791 8.13853,4.145 10.93886,5.1783 18.13222,10.2061 6.52688,4.562 11.99447,10.3499 17.85909,15.6782 0,0 -23.43563,14.5769 -23.43563,14.5769 z"
         id="path4749"
         style="fill:#000000;fill-opacity:1;stroke:#4c7ae3;stroke-width:2.5999999;stroke-linecap:round;stroke-linejoin:round;stroke-miterlimit:4;stroke-opacity:0;stroke-dasharray:none" />
      <path
         inkscape:connector-curvature="0"
         d="m -776.82546,1174.1122 c -11.94758,-11.4171 -26.96841,-18.3602 -41.75537,-25.2727 -24.63048,-11.1812 -50.20939,-20.0825 -76.23532,-27.3761 -11.63777,-2.9523 -6.09356,-1.9581 -16.58256,-3.2493 0,0 22.03526,-15.5107 22.03526,-15.5107 l 0,0 c 10.36658,1.8546 4.90621,0.6356 16.3375,3.8472 25.96871,7.7449 51.55761,16.791 76.3444,27.7826 15.24769,6.9592 30.58848,14.0173 43.29171,25.2021 0,0 -23.43562,14.5769 -23.43562,14.5769 z"
         id="path4751"
         style="fill:#000000;fill-opacity:1;stroke:#4c7ae3;stroke-width:2.5999999;stroke-linecap:round;stroke-linejoin:round;stroke-miterlimit:4;stroke-opacity:0;stroke-dasharray:none" />
      <path
         inkscape:connector-curvature="0"
         d="m -1025.203,1234.9024 c 16.9934,-14.7965 36.16127,-26.9392 54.92101,-39.3422 23.94282,-15.9941 48.48884,-31.0377 73.11845,-45.9401 0,0 23.35936,-9.0197 23.35936,-9.0197 l 0,0 c -24.47616,14.7538 -48.87432,29.6426 -72.58126,45.618 -18.20245,12.0784 -36.69128,23.9956 -53.37526,38.1454 0,0 -25.4423,10.5386 -25.4423,10.5386 z"
         id="path4753"
         style="fill:#000000;fill-opacity:1;stroke:#4c7ae3;stroke-width:2.5999999;stroke-linecap:round;stroke-linejoin:round;stroke-miterlimit:4;stroke-opacity:0;stroke-dasharray:none" />
      <path
         inkscape:connector-curvature="0"
         d="m -418.49977,1370.6425 c 11.49456,-9.9596 24.21433,-18.2959 36.8657,-26.6752 6.68643,-4.503 13.44223,-8.9024 20.25526,-13.2112 0.30496,-0.1921 0.60992,-0.3841 0.91488,-0.5762 0,0 25.89268,-10.0126 25.89268,-10.0126 l 0,0 c -0.331,0.1963 -0.66201,0.3927 -0.99301,0.5891 -7.10964,4.3083 -14.10452,8.8055 -21.01934,13.4192 -12.46337,8.2396 -25.13225,16.237 -36.43825,26.0702 0,0 -25.47792,10.3967 -25.47792,10.3967 z"
         id="path4755"
         style="fill:#000000;fill-opacity:1;stroke:#4c7ae3;stroke-width:2.5999999;stroke-linecap:round;stroke-linejoin:round;stroke-miterlimit:4;stroke-opacity:0;stroke-dasharray:none" />
      <path
         inkscape:connector-curvature="0"
         d="m -347.97745,1326.3683 c 4.70961,4.2947 9.1896,8.8244 13.78339,13.24 0,0 -23.18956,14.2726 -23.18956,14.2726 l 0,0 c -4.58352,-4.4123 -9.06613,-8.9402 -14.02946,-12.9358 0,0 23.43563,-14.5768 23.43563,-14.5768 z"
         id="path4757"
         style="fill:#000000;fill-opacity:1;stroke:#4c7ae3;stroke-width:2.5999999;stroke-linecap:round;stroke-linejoin:round;stroke-miterlimit:4;stroke-opacity:0;stroke-dasharray:none" />
      <path
         inkscape:connector-curvature="0"
         d="m -409.73502,1399.1209 c 10.78121,-7.3455 20.80017,-15.7172 30.71221,-24.1761 18.39703,-14.7997 39.55336,-25.7048 60.35058,-36.7342 1.8601,-0.9609 3.7202,-1.9218 5.58031,-2.8827 0,0 -21.13334,16.9561 -21.13334,16.9561 l 0,0 c -1.83811,0.9573 -3.67622,1.9146 -5.51434,2.8719 -7.68273,4.1339 -29.85421,16.8943 4.71786,-3.2461 2.12009,-1.2351 -4.25653,2.4452 -6.32768,3.7607 -5.89516,3.7444 -7.1841,4.9205 -12.78047,9.1889 -9.71209,8.3337 -19.39806,16.7817 -29.94262,24.0559 0,0 -25.66251,10.2056 -25.66251,10.2056 z"
         id="path4759"
         style="fill:#000000;fill-opacity:1;stroke:#4c7ae3;stroke-width:2.5999999;stroke-linecap:round;stroke-linejoin:round;stroke-miterlimit:4;stroke-opacity:0;stroke-dasharray:none" />
    </g>
  </g>
</svg>
