<?xml version="1.0" encoding="UTF-8" standalone="no"?>
<!-- Created with Inkscape (http://www.inkscape.org/) -->

<svg
   xmlns:dc="http://purl.org/dc/elements/1.1/"
   xmlns:cc="http://creativecommons.org/ns#"
   xmlns:rdf="http://www.w3.org/1999/02/22-rdf-syntax-ns#"
   xmlns:svg="http://www.w3.org/2000/svg"
   xmlns="http://www.w3.org/2000/svg"
   xmlns:sodipodi="http://sodipodi.sourceforge.net/DTD/sodipodi-0.dtd"
   xmlns:inkscape="http://www.inkscape.org/namespaces/inkscape"
   width="826.5"
   height="826.5"
   id="svg4909"
   version="1.1"
   inkscape:version="0.48.4 r9939"
   sodipodi:docname="pyss15_talk.svg">
  <defs
     id="defs4911" />
  <sodipodi:namedview
     id="base"
     pagecolor="#ffffff"
     bordercolor="#666666"
     borderopacity="1.0"
     inkscape:pageopacity="1"
     inkscape:pageshadow="2"
     inkscape:zoom="0.13942175"
     inkscape:cx="798.69084"
     inkscape:cy="1267.2164"
     inkscape:document-units="px"
     inkscape:current-layer="layer1"
     showgrid="false"
     fit-margin-top="0"
     fit-margin-left="0"
     fit-margin-right="0"
     fit-margin-bottom="0"
     inkscape:window-width="602"
     inkscape:window-height="623"
     inkscape:window-x="203"
     inkscape:window-y="163"
     inkscape:window-maximized="0" />
  <metadata
     id="metadata4914">
    <rdf:RDF>
      <cc:Work
         rdf:about="">
        <dc:format>image/svg+xml</dc:format>
        <dc:type
           rdf:resource="http://purl.org/dc/dcmitype/StillImage" />
        <dc:title />
      </cc:Work>
    </rdf:RDF>
  </metadata>
  <g
     inkscape:label="Layer 1"
     inkscape:groupmode="layer"
     id="layer1"
     transform="translate(-98.292068,-267.90167)">
    <path
       style="fill:#000000;fill-opacity:1;stroke:#4c7ae3;stroke-width:2.76165342;stroke-linecap:round;stroke-linejoin:round;stroke-miterlimit:4;stroke-opacity:0;stroke-dasharray:none"
       id="path4586"
       d="m 262.26822,750.72134 c 1.04645,0.005 2.1168,-0.20667 3.13935,0.0158 11.29646,2.45764 11.56008,21.09409 12.25133,29.57073 0.61237,23.9132 -2.66443,47.70205 -6.65661,71.21906 0.1365,2.84927 -2.99189,12.21233 1.72276,14.05889 4.80705,1.88274 17.67481,-3.73958 21.42903,-5.05015 15.41421,-6.41356 30.33379,-14.15781 44.54387,-22.92436 0.68977,-0.42554 -2.99572,1.15432 -2.33138,0.6901 5.49553,-3.84013 11.32488,-7.18054 16.9154,-10.88102 5.02776,-3.32797 9.95761,-6.80155 14.93642,-10.20232 14.07311,-10.08882 27.87844,-20.6281 40.64055,-32.35108 18.838,-16.62333 26.60059,-16.32395 47.1416,-16.99294 32.14105,-0.89213 64.16357,-3.71923 96.12307,-7.10486 58.07814,-6.01054 115.46374,-16.83375 172.52713,-28.96198 9.46178,-2.31047 18.96759,-4.44764 28.38537,-6.93141 23.42974,-6.17916 46.75554,-13.40123 68.94268,-23.23364 5.88576,-2.60833 11.56557,-5.65859 17.34704,-8.4906 1.85754,-0.90991 -3.71687,1.8162 -5.5753,2.72429 13.84634,-9.61738 26.14795,-21.44359 33.36529,-36.90876 3.79626,-8.13451 3.66941,-9.93533 5.45905,-18.51436 0.16846,-3.16145 0.62986,-6.32084 0.50538,-9.48432 -0.57778,-14.6834 -7.49704,-28.63612 -17.49843,-39.22118 -3.22003,-3.40797 -6.98705,-6.254 -10.48057,-9.381 -4.55775,-2.96119 -8.92837,-6.23255 -13.67324,-8.88358 -30.05366,-16.7914 -66.93209,-24.47433 -100.23514,-32.11622 -27.55205,-5.92109 -55.42381,-10.74042 -83.61169,-12.19901 -22.19023,-1.14824 -31.06257,-0.47422 -53.76553,0.0769 -10.33962,0.76438 -20.69338,1.35683 -31.01885,2.29316 -10.79431,0.97884 -21.56533,2.20568 -32.3321,3.45157 -31.1308,3.60231 -62.26896,7.83507 -93.00414,14.03483 -9.22401,1.86063 -18.3624,4.12311 -27.54359,6.18468 -54.18956,13.14911 -105.50032,35.48992 -156.06584,58.55913 -19.35028,9.01874 -38.68217,18.21703 -57.07647,29.09771 -1.88415,1.11452 7.57906,-4.30778 5.87672,-2.93148 -4.02408,3.25335 -8.66994,5.65496 -12.91163,8.61902 -3.98232,2.78282 -7.83628,5.74494 -11.75442,8.61741 -9.88372,7.73256 -19.60697,15.79701 -27.52492,25.60936 -3.96079,4.90843 -8.13042,10.93123 -10.20762,16.99677 -0.96262,2.81089 -1.17189,5.8256 -1.75783,8.73839 0.27955,3.00104 0.084,6.08511 0.83867,9.00313 3.54823,13.71927 17.27663,27.11395 28.27611,35.2016 3.61201,2.65583 7.52219,4.88022 11.28329,7.32034 4.41266,1.98944 8.67729,4.34674 13.238,5.9683 16.258,5.78057 33.91411,7.46526 51.03753,7.84864 6.34816,0.14213 12.69851,-0.15943 19.04776,-0.23916 0,0 -18.83373,13.71126 -18.83373,13.71126 l 0,0 c -6.39078,0.043 -12.78379,0.30359 -19.17234,0.12913 -22.61351,-0.61755 -45.28483,-3.66457 -65.4757,-14.48086 -3.83233,-2.50704 -7.81413,-4.79925 -11.49697,-7.52114 -11.75652,-8.6889 -25.46417,-22.05113 -29.57355,-36.6012 -0.87834,-3.10992 -0.78389,-6.41544 -1.17584,-9.62316 0.51418,-3.11215 0.61691,-6.32098 1.54254,-9.33645 1.96553,-6.40324 6.06299,-12.528 10.12653,-17.71821 7.8896,-10.07706 17.68205,-18.33127 27.67932,-26.22009 8.32673,-6.1678 15.9484,-12.08271 24.81185,-17.518 29.28842,-17.96038 59.25726,-34.7636 90.7407,-48.59309 50.63274,-22.89507 101.95678,-45.22216 156.21408,-58.08577 9.1495,-1.99859 18.25824,-4.19383 27.44848,-5.99578 18.45984,-3.61946 41.84818,-7.19036 60.38902,-9.69579 16.47514,-2.2263 48.38026,-5.97954 64.93541,-7.50587 10.43243,-0.96184 20.89244,-1.59665 31.33866,-2.39498 22.82121,-0.64701 32.13889,-1.38079 54.4697,-0.28553 28.31181,1.38862 56.30181,6.22368 83.92316,12.38982 21.47566,5.0338 43.05546,9.90951 64.01882,16.86158 12.88239,4.27217 25.25968,9.02109 37.16112,15.59254 4.88769,2.69876 9.39559,6.03439 14.09338,9.05159 3.6226,3.21409 7.52302,6.13996 10.86778,9.64224 10.43438,10.92579 17.74911,25.34604 18.63893,40.55569 0.19118,3.26781 -0.22066,6.54307 -0.33097,9.81461 -1.6783,8.86891 -1.52654,10.80278 -5.27467,19.23619 -7.10588,15.98848 -19.48388,28.33087 -33.56099,38.36422 -11.53317,6.76012 -22.88249,13.84421 -34.59953,20.28036 -10.45961,5.74544 -26.0575,12.01895 -37.0933,15.96727 -25.05712,8.96478 -50.8824,15.56293 -76.81874,21.40481 -57.41771,12.08705 -115.12601,22.96534 -173.4909,29.40489 -32.43154,3.61142 -64.92399,6.60953 -97.53857,7.96741 -5.40346,0.32411 -9.21241,0.42562 -14.42015,1.14076 -1.35851,0.18656 -2.71444,0.41703 -4.04538,0.74709 -0.9307,0.2308 -3.53167,1.44453 -2.72183,0.93109 30.12323,-19.09779 24.23703,-14.97556 17.15028,-9.89735 -13.19014,12.13208 -27.6685,22.79919 -42.13966,33.32827 -11.33629,7.75205 -20.27696,14.06181 -32.07313,21.28561 -12.35549,7.56631 -24.82682,14.94277 -37.31528,22.28753 -10.66047,6.26967 -21.30518,12.25479 -32.48708,17.54345 -4.3062,2.03669 -8.75134,3.76559 -13.12701,5.64838 -6.27515,2.06193 -17.06239,7.48957 -23.86174,2.99436 -5.14548,-3.40181 -2.45795,-11.59331 -2.15648,-16.17493 4.5539,-23.27164 7.95523,-46.93178 7.09442,-70.70998 -0.61124,-6.68501 -0.72863,-21.31206 -8.07092,-25.22928 -2.05111,-1.09431 -3.69798,-0.46247 -5.77794,-0.11713 0,0 20.04012,-15.47197 20.04012,-15.47197 z"
       inkscape:connector-curvature="0" />
    <path
       style="fill:#000000;fill-opacity:1;stroke:#4c7ae3;stroke-width:2.76165342;stroke-linecap:round;stroke-linejoin:round;stroke-miterlimit:4;stroke-opacity:0;stroke-dasharray:none"
       id="path4588"
       d="m 369.66024,618.19823 c 3.38836,18.36968 3.21256,37.19783 2.76777,55.80413 -0.47143,12.50156 -0.22176,6.36669 -0.74505,18.40481 0,0 -21.89527,11.02474 -21.89527,11.02474 l 0,0 c 0.62914,-12.06421 0.32285,-5.91988 0.91566,-18.43314 0.53689,-18.23281 0.88479,-36.80027 -3.10838,-54.70244 0,0 22.06527,-12.0981 22.06527,-12.0981 z"
       inkscape:connector-curvature="0" />
    <path
       style="fill:#000000;fill-opacity:1;stroke:#4c7ae3;stroke-width:2.76165342;stroke-linecap:round;stroke-linejoin:round;stroke-miterlimit:4;stroke-opacity:0;stroke-dasharray:none"
       id="path4590"
       d="m 431.42086,601.45324 c 0.99969,0.97559 2.14025,1.82513 2.99907,2.92676 9.52777,12.22131 11.7165,32.89404 13.86956,47.70558 1.72804,13.12234 2.71118,26.32102 3.58132,39.52195 0,0 -21.93893,11.3199 -21.93893,11.3199 l 0,0 c -0.48195,-13.23258 -1.22827,-26.46288 -2.92275,-39.60512 -2.0212,-13.62065 -4.36339,-34.9279 -13.91839,-45.70801 -0.82034,-0.92553 -1.9222,-1.55674 -2.8833,-2.3351 0,0 21.21342,-13.82596 21.21342,-13.82596 z"
       inkscape:connector-curvature="0" />
    <path
       style="fill:#000000;fill-opacity:1;stroke:#4c7ae3;stroke-width:2.76165342;stroke-linecap:round;stroke-linejoin:round;stroke-miterlimit:4;stroke-opacity:0;stroke-dasharray:none"
       id="path4592"
       d="m 457.16509,624.06659 c 0.34814,-7.596 -0.0805,-15.20326 0.0481,-22.79883 7.61842,-3.58883 14.80408,-8.29698 22.85526,-10.76651 1.16184,-0.35637 0.31144,2.41056 0.45127,3.61775 0.22027,1.90137 0.38562,3.80915 0.629,5.7077 1.07457,8.38224 2.57611,16.68959 4.08576,25.00131 2.29323,11.3189 1.11755,5.72337 3.52236,16.78759 0,0 -21.64845,11.61559 -21.64845,11.61559 l 0,0 c -2.37766,-11.13026 -1.21194,-5.50173 -3.49286,-16.88646 -1.55325,-8.298 -3.12369,-16.59683 -4.49891,-24.92686 -0.30502,-1.84763 -0.55799,-3.70352 -0.85155,-5.553 -0.16689,-1.05145 -1.39149,-2.52447 -0.52975,-3.14962 6.91407,-5.01579 14.86153,-8.42528 22.2923,-12.63792 -0.84274,2.647 -0.45862,5.86695 -0.47027,8.59464 -0.0199,4.64311 -0.0236,9.28705 0.1106,13.92881 0,0 -22.50292,11.46581 -22.50292,11.46581 z"
       inkscape:connector-curvature="0" />
    <path
       style="fill:#000000;fill-opacity:1;stroke:#4c7ae3;stroke-width:2.76165342;stroke-linecap:round;stroke-linejoin:round;stroke-miterlimit:4;stroke-opacity:0;stroke-dasharray:none"
       id="path4594"
       d="m 394.267,653.12443 c 30.27339,-8.63308 60.48088,-17.49526 90.71385,-26.2697 6.57228,-1.96457 13.14458,-3.92914 19.71687,-5.8937 0,0 -18.31309,14.13037 -18.31309,14.13037 l 0,0 c -6.52826,1.92534 -13.05652,3.85067 -19.58477,5.776 -30.87221,9.00882 -61.76805,18.00091 -92.40824,27.76604 0,0 19.87538,-15.50901 19.87538,-15.50901 z"
       inkscape:connector-curvature="0" />
    <path
       style="fill:#000000;fill-opacity:1;stroke:#4c7ae3;stroke-width:2.76165342;stroke-linecap:round;stroke-linejoin:round;stroke-miterlimit:4;stroke-opacity:0;stroke-dasharray:none"
       id="path4596"
       d="m 340.43454,706.04595 c -16.55905,4.39431 -20.20692,9.34787 10.21954,-11.83655 31.22116,-10.44317 62.55499,-20.50414 94.03231,-30.15744 9.32133,-2.7332 18.64267,-5.4664 27.964,-8.1996 0,0 -17.49475,13.49354 -17.49475,13.49354 l 0,0 c -9.35655,2.77343 -18.71309,5.54686 -28.06964,8.32029 -23.42658,7.34189 -27.74493,8.56349 -50.22228,16.08688 -13.8237,4.62693 -27.47753,10.03893 -41.44811,14.22455 -1.69399,0.50751 -3.4314,0.85688 -5.1471,1.28533 6.10293,-5.04329 12.0782,-10.24518 18.3088,-15.12987 0.43199,-0.33868 1.05373,-0.30812 1.58037,-0.46294 3.44476,-1.01269 6.8868,-2.03505 10.31699,-3.09617 0,0 -20.04013,15.47198 -20.04013,15.47198 z"
       inkscape:connector-curvature="0" />
    <path
       style="fill:#000000;fill-opacity:1;stroke:#4c7ae3;stroke-width:2.76165342;stroke-linecap:round;stroke-linejoin:round;stroke-miterlimit:4;stroke-opacity:0;stroke-dasharray:none"
       id="path4598"
       d="m 560.40416,562.30192 c 4.13043,16.7494 5.71704,33.99944 7.22262,51.14416 0.5779,8.94047 1.75161,17.78765 3.29471,26.60283 0,0 -21.76131,11.55162 -21.76131,11.55162 l 0,0 c -1.46221,-8.93407 -2.53223,-17.89502 -3.07955,-26.93976 -1.44592,-16.80456 -3.00626,-33.76878 -7.77418,-50.0189 0,0 22.09771,-12.33995 22.09771,-12.33995 z"
       inkscape:connector-curvature="0" />
    <path
       style="fill:#000000;fill-opacity:1;stroke:#4c7ae3;stroke-width:2.76165342;stroke-linecap:round;stroke-linejoin:round;stroke-miterlimit:4;stroke-opacity:0;stroke-dasharray:none"
       id="path4600"
       d="m 651.15841,583.79717 c -7.7523,0.15422 -15.24122,1.99334 -22.45758,4.77895 -3.42357,1.32153 -11.75571,7.72607 -10.06046,4.47132 1.91451,-3.67573 6.88049,-7.14364 10.87273,-6.03083 3.58447,0.99914 -6.03149,4.35978 -9.04724,6.53967 -5.94041,5.57278 -18.67762,16.43695 -14.08427,26.25111 2.49524,5.33132 6.5927,6.09707 11.52972,8.501 3.39397,0.7172 6.7382,1.73404 10.1819,2.15159 15.10387,1.83134 30.91237,-0.91085 44.99917,-6.43133 2.69555,-1.05636 5.26546,-2.40886 7.89819,-3.61329 -5.27518,2.90798 -10.55037,5.81595 -15.82555,8.72393 -0.45879,0.30063 3.82885,-2.6712 2.90038,-4.0468 -0.90143,-1.33553 -7.67383,-1.89334 -9.06635,-2.06928 -1.28895,0.0127 -2.57792,0.0255 -3.86688,0.0382 0,0 20.34158,-14.70364 20.34158,-14.70364 l 0,0 c 1.35265,0.077 2.7053,0.15391 4.05794,0.23086 3.45628,0.64382 13.44105,2.35343 11.40977,8.24619 -3.77313,10.9459 -39.4857,5.43489 -29.19695,18.8144 -2.6295,1.09769 -5.2034,2.33937 -7.88848,3.29304 -14.41853,5.12111 -30.48964,7.54943 -45.72822,5.36192 -3.63709,-0.5221 -7.1525,-1.687 -10.72873,-2.53049 -5.88718,-3.16331 -9.90352,-3.98003 -12.93371,-10.33788 -5.39663,-11.32312 6.46479,-22.04673 13.47347,-28.93923 16.49703,-12.4627 11.79208,-9.49235 39.72101,-24.49128 10.36558,-5.56673 22.28712,-8.52287 33.98903,-8.88796 0,0 -20.49047,14.67978 -20.49047,14.67978 z"
       inkscape:connector-curvature="0" />
    <path
       style="fill:#000000;fill-opacity:1;stroke:#4c7ae3;stroke-width:2.76165342;stroke-linecap:round;stroke-linejoin:round;stroke-miterlimit:4;stroke-opacity:0;stroke-dasharray:none"
       id="path4602"
       d="m 738.09599,609.2559 c 4.61827,2.99602 1.96608,1.57918 8.10863,3.9527 0,0 -20.69211,13.85817 -20.69211,13.85817 l 0,0 c -6.77863,-2.81839 -3.79477,-1.15822 -9.08709,-4.72875 0,0 21.67057,-13.08212 21.67057,-13.08212 z"
       inkscape:connector-curvature="0" />
    <path
       style="fill:#000000;fill-opacity:1;stroke:#4c7ae3;stroke-width:2.76165342;stroke-linecap:round;stroke-linejoin:round;stroke-miterlimit:4;stroke-opacity:0;stroke-dasharray:none"
       id="path4604"
       d="m 772.24418,585.77411 c -16.92638,0.15993 -33.7432,3.21133 -49.88043,8.25424 -4.33105,1.35346 -8.56875,2.98926 -12.85313,4.48389 6.77899,3.69184 -29.52129,6.2326 -22.74952,11.32055 3.36316,2.5269 7.06037,-6.22907 11.23861,-5.74091 3.3244,0.38841 -5.36334,4.00889 -7.95709,6.12431 -4.09675,3.34125 -8.40522,7.40062 -12.31424,10.99685 -1.98744,1.89907 -5.63773,5.34442 -7.70167,7.45576 -0.58751,0.60101 -1.04595,1.33399 -1.69906,1.86298 -1.08405,0.87804 1.06061,-3.29836 0.51681,-3.07399 -6.26842,2.58634 -11.87284,6.55472 -17.80927,9.83208 5.0865,-3.88691 10.76198,-7.29411 15.01888,-12.17031 0.8779,-1.00563 3.57695,-4.08607 2.18908,-6.10093 -0.60965,-0.88506 -1.81517,-1.15115 -2.72276,-1.72672 -7.2738,-1.85041 -15.42704,-3.26903 -22.91501,-1.64117 -1.04035,0.22617 -1.97334,0.79988 -2.96001,1.19981 7.11121,-4.16145 14.22244,-8.3229 21.33365,-12.48435 0.9681,-0.005 1.94393,-0.13942 2.9043,-0.0172 2.49762,0.31795 4.94627,0.95031 7.43475,1.33333 3.71511,0.57182 7.44816,1.02041 11.17223,1.53061 0,0 -19.76133,13.97809 -19.76133,13.97809 l 0,0 c -2.05543,-0.24315 -16.24155,-1.72913 -19.58507,-2.71752 -1.71119,-0.50585 -3.18081,-1.61825 -4.77121,-2.42739 7.07142,-4.86488 13.93925,-10.03982 21.21424,-14.59465 1.26274,-0.79061 7.94477,-0.86705 8.33555,-0.86213 6.41101,0.0807 12.88535,0.77548 18.82108,3.3369 1.25541,1.11352 2.88928,1.90983 3.76621,3.34055 4.66741,7.61508 -11.72116,17.09243 -16.16997,20.89648 -8.46252,4.97248 -16.52972,10.68911 -25.38754,14.91741 -0.88224,0.42114 -4.73463,-0.66828 -3.90218,-2.75576 0.34719,-0.87064 1.20423,-1.43896 1.85766,-2.11096 1.40415,-1.44409 6.93054,-6.64238 8.00748,-7.66218 6.19851,-5.70586 13.52635,-13.13463 20.52018,-17.64145 16.94701,-10.92067 34.15274,-21.71863 52.97235,-29.10584 4.32326,-1.45874 8.60202,-3.05658 12.96974,-4.3762 16.6322,-5.02511 33.88926,-7.96075 51.25963,-8.47055 0,0 -20.39294,14.81634 -20.39294,14.81634 z"
       inkscape:connector-curvature="0" />
  </g>
</svg>
