<?xml version="1.0" encoding="UTF-8" standalone="no"?>
<!-- Created with Inkscape (http://www.inkscape.org/) -->

<svg
   xmlns:dc="http://purl.org/dc/elements/1.1/"
   xmlns:cc="http://creativecommons.org/ns#"
   xmlns:rdf="http://www.w3.org/1999/02/22-rdf-syntax-ns#"
   xmlns:svg="http://www.w3.org/2000/svg"
   xmlns="http://www.w3.org/2000/svg"
   xmlns:sodipodi="http://sodipodi.sourceforge.net/DTD/sodipodi-0.dtd"
   xmlns:inkscape="http://www.inkscape.org/namespaces/inkscape"
   width="826.5"
   height="826.5"
   id="svg4909"
   version="1.1"
   inkscape:version="0.48.4 r9939"
   sodipodi:docname="pyss15_who_comming.svg">
  <defs
     id="defs4911" />
  <sodipodi:namedview
     id="base"
     pagecolor="#ffffff"
     bordercolor="#666666"
     borderopacity="1.0"
     inkscape:pageopacity="1"
     inkscape:pageshadow="2"
     inkscape:zoom="0.19717213"
     inkscape:cx="497.91358"
     inkscape:cy="654.36303"
     inkscape:document-units="px"
     inkscape:current-layer="g4856"
     showgrid="false"
     fit-margin-top="0"
     fit-margin-left="0"
     fit-margin-right="0"
     fit-margin-bottom="0"
     inkscape:window-width="602"
     inkscape:window-height="623"
     inkscape:window-x="203"
     inkscape:window-y="163"
     inkscape:window-maximized="0" />
  <metadata
     id="metadata4914">
    <rdf:RDF>
      <cc:Work
         rdf:about="">
        <dc:format>image/svg+xml</dc:format>
        <dc:type
           rdf:resource="http://purl.org/dc/dcmitype/StillImage" />
        <dc:title />
      </cc:Work>
    </rdf:RDF>
  </metadata>
  <g
     inkscape:label="Layer 1"
     inkscape:groupmode="layer"
     id="layer1"
     transform="translate(-98.292068,-267.90167)">
    <g
       transform="translate(2050.1633,550.26049)"
       id="g4856">
      <g
         id="g2996"
         transform="matrix(1.1788695,0,0,1.1788695,259.1618,8.8000761)">
        <path
           style="fill:#1a1a1a;fill-opacity:1;stroke:#4c7ae3;stroke-width:2.5999999;stroke-linecap:round;stroke-linejoin:round;stroke-miterlimit:4;stroke-opacity:0;stroke-dasharray:none"
           id="path4657"
           d="m -1594.2306,105.6463 c -1.4621,0.68578 -5.7862,2.86264 -4.3863,2.05732 5.4657,-3.14443 10.5025,-7.45492 16.5949,-9.080925 3.6367,-0.97058 -6.0257,4.525075 -8.8495,7.013775 -8.964,7.90025 -16.0955,15.51159 -23.7017,24.87709 -4.7723,5.87626 -9.1408,12.06938 -13.7112,18.10406 -4.4989,7.18691 -9.3215,14.18107 -13.4967,21.56073 -18.0294,31.86664 -31.3205,66.99967 -35.8541,103.47438 -1.0033,8.07224 -0.9965,16.23816 -1.4948,24.35724 1.4162,18.29419 0.7369,22.51157 5.6331,39.54519 1.4008,4.87319 3.5368,9.5043 5.3052,14.25646 0,0 -22.6624,12.5481 -22.6624,12.5481 l 0,0 c -1.7012,-4.92119 -3.763,-9.73219 -5.1037,-14.76357 -4.6626,-17.49696 -3.9843,-21.80882 -5.2612,-40.50765 0.544,-8.24826 0.5986,-16.54345 1.6321,-24.74477 5.6954,-45.19901 23.9572,-87.71926 48.3682,-125.83209 4.4029,-6.02881 8.6173,-12.19993 13.2088,-18.08644 17.5573,-22.50942 38.3134,-41.319005 65.6296,-51.648415 0,0 -21.8503,16.869515 -21.8503,16.869515 z"
           inkscape:connector-curvature="0" />
        <path
           style="fill:#182318;fill-opacity:1;stroke:#4c7ae3;stroke-width:2.5999999;stroke-linecap:round;stroke-linejoin:round;stroke-miterlimit:4;stroke-opacity:0;stroke-dasharray:none"
           id="path4659"
           d="m -1451.2731,79.532436 c 16.2022,14.25613 28.3363,32.669754 38.058,51.800724 3.4792,6.84657 6.4257,13.95104 9.6386,20.92657 14.8502,37.40353 23.9501,77.12272 26.2226,117.33894 0.3408,6.03154 0.2475,12.07978 0.3712,18.11968 -0.015,12.04342 -1.229,23.9798 -2.9736,35.87056 0,0 -24.0111,11.73276 -24.0111,11.73276 l 0,0 c 2.269,-11.88981 3.9588,-23.84761 4.2279,-35.98388 0.021,-6.04782 0.2831,-12.09957 0.064,-18.14345 -1.4513,-40.0372 -10.4552,-79.61748 -25.5957,-116.65259 -3.2816,-6.85382 -6.2818,-13.84958 -9.8446,-20.56148 -9.8896,-18.63076 -22.3497,-36.80787 -39.3957,-49.568554 0,0 23.2384,-14.87928 23.2384,-14.87928 z"
           inkscape:connector-curvature="0" />
        <path
           style="fill:#182318;fill-opacity:1;stroke:#4c7ae3;stroke-width:2.5999999;stroke-linecap:round;stroke-linejoin:round;stroke-miterlimit:4;stroke-opacity:0;stroke-dasharray:none"
           id="path4661"
           d="m -1354.6654,-40.78031 c -1.244,0.261 -2.5021,0.4619 -3.732,0.78299 -4.9281,1.28662 -7.5953,2.20304 -12.3011,4.67289 -2.7246,1.42999 -10.8565,5.70019 -7.9486,4.69395 13.7603,-4.76163 20.6783,-13.29118 5.6423,1.43947 -2.4836,3.25436 -5.3085,6.27454 -7.4507,9.76307 -6.635,10.80496 -9.8342,23.30941 -6.9192,35.89595 2.633,11.36841 5.857,13.62284 12.7331,22.76927 3.6186,3.02956 6.9397,6.45485 10.8557,9.08868 12.527,8.42545 27.7496,12.94063 42.8151,13.08412 12.9391,0.12323 18.4094,-2.06019 30.8564,-5.12482 4.7686,-2.05396 9.2301,-5.06856 14.3057,-6.16188 3.5001,-0.75393 -10.76,8.44502 -9.445,5.11488 1.6648,-4.21604 7.3972,-5.28235 10.726,-8.35891 5.0839,-4.69853 10.9353,-11.83614 13.6706,-18.3841 1.2168,-2.91306 1.486,-6.13665 2.2291,-9.20497 -0.3824,-3.05467 -0.1513,-6.25101 -1.1472,-9.16401 -5.1964,-15.2006 -24.4695,-24.0521 -38.3604,-28.65034 -4.7962,-1.58764 -9.7636,-2.60146 -14.6453,-3.90219 0,0 21.3689,-14.67308 21.3689,-14.67308 l 0,0 c 4.9484,1.37798 9.9831,2.47691 14.8452,4.13395 15.0731,5.13702 34.4824,14.41161 40.3633,30.6621 1.1508,3.17999 1.0403,6.68315 1.5604,10.02472 -0.6762,3.33221 -0.8277,6.81561 -2.0286,9.99663 -4.0994,10.85956 -14.7113,22.10071 -24.3434,28.19157 -30.0957,19.03093 -26.254,16.69698 -49.6511,26.04198 -12.8687,2.86014 -18.1169,4.88704 -31.4298,4.4263 -15.4611,-0.53509 -31.007,-5.47503 -43.7683,-14.26437 -4.0469,-2.78731 -7.4874,-6.36578 -11.2312,-9.54867 -7.2591,-9.67052 -10.5701,-12.02266 -13.5445,-23.96662 -3.2373,-12.99996 -0.5106,-26.13175 6.035,-37.60185 2.0502,-3.59256 4.8277,-6.71807 7.2415,-10.0771 16.2388,-17.05957 6.1457,-7.85289 39.4665,-28.33593 7.8276,-4.81182 16.3266,-8.76218 25.5745,-9.59675 0,0 -22.3429,16.23307 -22.3429,16.23307 z"
           inkscape:connector-curvature="0" />
        <path
           style="fill:#c87137;fill-opacity:1;stroke:#4c7ae3;stroke-width:2.5999999;stroke-linecap:round;stroke-linejoin:round;stroke-miterlimit:4;stroke-opacity:0;stroke-dasharray:none"
           id="path4675"
           d="m -1346.8178,-46.76623 c -9.1763,-1.58539 -18.7982,-0.68615 -27.5895,2.43636 -3.4073,1.21022 -12.6503,6.76805 -9.9124,4.40616 3.5631,-3.07376 8.3145,-4.40937 12.4718,-6.61405 -8.743,7.66925 -11.7868,9.34747 -18.4053,19.42685 -2.8322,4.31319 -4.9091,9.07744 -7.3637,13.61615 0,0 -23.6032,10.6311604 -23.6032,10.6311604 l 0,0 c 2.3364,-4.65441 4.293,-9.5197304 7.0092,-13.9632404 6.313,-10.32776 9.3141,-12.1575 17.7989,-20.18732 24.0501,-14.13463 43.6469,-30.54361 72.3901,-25.31997 0,0 -22.7959,15.5679 -22.7959,15.5679 z"
           inkscape:connector-curvature="0" />
        <path
           style="fill:#182318;fill-opacity:1;stroke:#4c7ae3;stroke-width:2.5999999;stroke-linecap:round;stroke-linejoin:round;stroke-miterlimit:4;stroke-opacity:0;stroke-dasharray:none"
           id="path4655"
           d="m -1558.0015,-87.70356 c -6.695,2.65733 -7.2942,2.70145 -14.4908,6.63456 -3.7797,2.06573 -8.4612,3.15311 -11.1648,6.50639 -2.1576,2.67609 11.3736,-7.08917 9.378,-4.29019 -3.4944,4.90106 -9.676,7.18001 -14.238,11.10669 -4.8557,4.17937 -9.3228,8.78993 -13.9842,13.18489 -4.2191,5.09418 -8.8387,9.88161 -12.6573,15.28252 -11.289,15.96696 -19.5258,34.88046 -18.6918,54.86035 0.7268,17.41107 4.6452,21.1047 12.3076,36.28511 4.518,5.14463 8.4735,10.84401 13.5542,15.43389 16.2217,14.65476 37.5554,23.794 59.0899,26.82597 19.4165,2.73375 25.3238,0.59605 44.5253,-1.99003 21.0543,-6.42924 22.9466,-5.70927 42.1811,-16.79055 0.8143,-0.46914 -3.4677,0.67952 -2.8193,-7.8e-4 4.8702,-5.10997 11.0286,-8.85873 16.0203,-13.85013 12.9142,-12.91359 13.5397,-16.03683 22.6199,-31.27086 1.7967,-5.56478 4.3489,-10.94014 5.3901,-16.69433 3.2662,-18.0489 -1.9546,-35.50524 -13.2729,-49.73862 -11.1017,-13.96111 -18.3041,-16.97289 -33.1636,-26.83292 -7.0986,-3.13913 -14.1971,-6.27827 -21.2956,-9.4174 0,0 20.704,-13.75424 20.704,-13.75424 l 0,0 c 7.2016,3.23627 14.4032,6.47254 21.6048,9.70881 15.2773,10.10973 22.6729,13.21555 34.1537,27.51824 11.8097,14.71261 17.5023,32.80548 14.4171,51.59565 -0.9757,5.94241 -3.5175,11.51886 -5.2762,17.2783 -9.0303,15.61615 -9.6527,18.85642 -22.591,32.14011 -17.0537,17.50889 -33.3564,26.00571 -55.9818,38.87223 -6.6408,3.77652 -13.5564,7.13037 -20.7011,9.83527 -7.1407,2.7034 -14.675,4.22372 -22.0125,6.33558 -19.5003,2.28765 -25.4387,4.32914 -45.0832,1.259 -21.9179,-3.42544 -43.5841,-13.01488 -60.0778,-28.00353 -5.2261,-4.74921 -9.3177,-10.61367 -13.9765,-15.9205 -7.996,-15.66472 -12.0625,-19.5338 -13.0341,-37.51151 -1.0994,-20.34259 6.8675,-39.77229 18.1121,-56.24416 3.7422,-5.48192 8.3021,-10.35847 12.4532,-15.5377 4.5814,-4.44785 8.969,-9.10439 13.7442,-13.34355 16.7155,-14.83933 27.0116,-19.52385 48.962,-32.81896 8.6093,-5.21456 17.4783,-10.09807 26.9572,-13.55687 0,0 -21.6622,16.90327 -21.6622,16.90327 z"
           inkscape:connector-curvature="0" />
        <path
           style="fill:#182318;fill-opacity:1;stroke:#4c7ae3;stroke-width:1.8052808;stroke-linecap:round;stroke-linejoin:round;stroke-miterlimit:4;stroke-opacity:0;stroke-dasharray:none"
           id="path4663"
           d="m -1360.7075,74.178108 c -1.0511,0.568388 -4.1847,2.310845 -3.1531,1.705171 3.7819,-2.22026 7.2638,-5.194396 11.405,-6.549721 2.1702,-0.71026 -3.6199,2.889228 -5.2553,4.537045 -2.053,2.068655 -3.9964,4.265501 -5.7843,6.586263 -5.8799,7.632411 -7.4407,11.215928 -12.3088,19.899524 -7.2519,15.52603 -14.8259,31.35099 -18.6344,48.28193 -0.627,2.78713 -0.8468,5.657 -1.2702,8.48549 0,0 -16.0658,8.19204 -16.0658,8.19204 l 0,0 c 0.4852,-2.94827 0.7711,-5.93983 1.4557,-8.84483 4.0093,-17.01373 11.5833,-32.94221 18.6273,-48.73097 4.627,-8.679431 6.1638,-12.322529 11.7264,-20.046645 8.6131,-11.9601 20.7505,-19.818376 34.0609,-25.444775 0,0 -14.8034,11.929478 -14.8034,11.929478 z"
           inkscape:connector-curvature="0" />
        <path
           style="fill:#182318;fill-opacity:1;stroke:#4c7ae3;stroke-width:2.5999999;stroke-linecap:round;stroke-linejoin:round;stroke-miterlimit:4;stroke-opacity:0;stroke-dasharray:none"
           id="path4665"
           d="m -1271.888,52.58298 c 18.473,15.99918 27.0478,40.22296 35.8751,62.2651 14.3798,38.6796 21.5459,79.37464 27.4582,120.05124 1.8768,13.63893 3.238,27.33845 4.5789,41.03742 0,0 -23.4974,12.21233 -23.4974,12.21233 l 0,0 c -0.8851,-13.81483 -1.8823,-27.62533 -3.6288,-41.36477 -5.4242,-40.55943 -12.412,-81.12653 -27.1192,-119.51147 -6.334,-15.1515 -12.3612,-30.00437 -21.6627,-43.63376 -3.6749,-5.38494 -6.684,-9.19742 -11.4679,-13.37598 -1.129,-0.98621 -2.4441,-1.73672 -3.6661,-2.60509 0,0 23.1299,-15.07502 23.1299,-15.07502 z"
           inkscape:connector-curvature="0" />
        <path
           style="fill:#182318;fill-opacity:1;stroke:#4c7ae3;stroke-width:2.43153214;stroke-linecap:round;stroke-linejoin:round;stroke-miterlimit:4;stroke-opacity:0;stroke-dasharray:none"
           id="path4667"
           d="m -1741.5752,-34.630648 c -1.2636,0.344587 -2.5479,0.600788 -3.7906,1.033742 -1.8096,0.630471 -3.6122,1.308293 -5.3543,2.152388 -2.2042,1.06806 -8.5097,5.002379 -6.4662,3.575166 4.1706,-2.9127 8.0794,-6.907726 12.8622,-8.042079 3.1073,-0.736967 -5.1478,4.283672 -7.4688,6.762908 -2.5445,2.717847 -4.7222,5.854042 -7.0834,8.781058 -2.0306,3.792294 -4.4176,7.362505 -6.0917,11.3768721 -8.0515,19.3064079 -8.9234,42.4071109 -0.5902,61.8614009 2.1453,5.008226 5.3841,9.297204 8.0762,13.945796 3.6535,3.634621 6.9002,7.888801 10.9605,10.903853 13.2214,9.817865 29.125,11.815132 44.367,8.61781 13.4127,-2.813582 17.8721,-6.477035 29.9099,-13.227339 -2.2347,0.991396 -7.8141,5.408204 -6.7045,2.974198 2.1172,-4.644357 7.0661,-6.703473 10.1624,-10.559366 7.0664,-8.80012 13.4595,-20.831188 12.0035,-33.389474 -0.4548,-3.922466 -2.1682,-7.51378 -3.2522,-11.270675 -2.3173,-3.877328 -4.2877,-8.059158 -6.9518,-11.6319917 -13.0109,-17.448953 -33.8655,-32.0169903 -52.9769,-38.4718203 -4.7312,-1.597951 -9.6702,-2.234918 -14.5052,-3.352382 0,0 18.438,-14.676256 18.438,-14.676256 l 0,0 c 4.8524,1.271522 9.8116,2.092872 14.5569,3.814558 19.3431,7.018027 40.6632,21.861957 54.0842,39.4675514 2.8417,3.72760308 4.9833,8.0859971 7.475,12.1290057 1.2435,4.0381129 3.1438,7.8853069 3.7306,12.1143399 1.1953,8.614045 -0.858,16.357938 -4.4682,23.812793 -10.6033,21.895053 -31.0153,32.877053 -49.0385,44.963652 -12.2776,6.468936 -16.7967,10.012247 -30.4093,12.447019 -15.7844,2.82324 -32.0389,0.18226 -45.4949,-10.17515 -4.1717,-3.211008 -7.5041,-7.662043 -11.256,-11.49307 -2.7922,-4.835586 -6.1317,-9.310338 -8.3766,-14.50677 -8.5859,-19.87471 -8.2506,-43.533455 -0.6291,-63.660251 1.5635,-4.1290728 3.8414,-7.8524513 5.7621,-11.778682 2.2766,-3.037237 4.3601,-6.279488 6.8298,-9.111711 2.2332,-2.561055 4.5765,-5.060413 7.2348,-7.017316 13.6269,-10.031739 27.6218,-20.96098 43.6931,-24.999724 0,0 -19.2378,16.629946 -19.2378,16.629946 z"
           inkscape:connector-curvature="0" />
        <path
           style="fill:#182318;fill-opacity:1;stroke:#4c7ae3;stroke-width:2.5999999;stroke-linecap:round;stroke-linejoin:round;stroke-miterlimit:4;stroke-opacity:0;stroke-dasharray:none"
           id="path4669"
           d="m -1778.7783,90.71175 c -4.3008,-4.51429 -8.7524,-8.8811 -13.2184,-13.23096 -9.0707,1.93199 -9.6293,2.15792 21.4217,-11.49002 1.1942,-0.52487 -1.8535,1.85976 -2.5761,2.94572 -1.2738,1.91424 -2.3851,3.93983 -3.3838,6.01092 -3.2324,6.70318 -5.9297,14.52591 -8.4988,21.40666 -5.4857,16.07388 -9.9683,32.51107 -13.5142,49.1215 -1.9837,9.29229 -4.2792,21.31938 -4.6731,30.97302 -0.159,3.89835 0.3286,7.79626 0.4929,11.69439 0,0 -23.4395,12.0464 -23.4395,12.0464 l 0,0 c -0.1142,-4.06657 -0.5499,-8.13683 -0.3426,-12.19972 0.4915,-9.63248 2.9259,-22.15084 4.8893,-31.41974 3.5069,-16.55569 7.7875,-32.97193 12.8339,-49.12336 4.2151,-12.33072 16.3781,-57.47746 40.3249,-44.38776 4.3505,4.46738 8.7191,8.91907 13.234,13.2214 0,0 -23.5502,14.43155 -23.5502,14.43155 z"
           inkscape:connector-curvature="0" />
        <path
           style="fill:#182318;fill-opacity:1;stroke:#4c7ae3;stroke-width:2.34231567;stroke-linecap:round;stroke-linejoin:round;stroke-miterlimit:4;stroke-opacity:0;stroke-dasharray:none"
           id="path4671"
           d="m -1665.2571,83.421032 c -2.5698,-0.89308 -4.9765,-2.636694 -7.5359,-3.561486 -0.6471,-0.23382 -2.5508,0.08765 -1.9817,-0.410634 17.7601,-15.549981 17.5627,-22.278699 17.3382,-11.410535 0.6798,1.905019 1.3303,3.831983 2.0394,5.715067 10.3299,27.431586 -4.5855,-12.974397 7.8518,20.357518 5.0158,13.442288 9.6283,27.118288 14.1326,40.920688 1.3525,4.17489 2.7049,8.34979 4.0575,12.52468 0,0 -17.2231,13.89365 -17.2231,13.89365 l 0,0 c -1.3183,-4.196 -2.6367,-8.39202 -3.9551,-12.58803 -7.4034,-23.00089 -15.5516,-45.44068 -25.1562,-66.746806 -3.3515,-14.069025 -2.5371,-5.744604 17.9584,-19.614493 0.6406,-0.433483 1.378,0.480239 2.0562,0.774695 2.5369,1.101519 5.0156,2.49464 7.5993,3.381905 0,0 -17.1814,16.763781 -17.1814,16.763781 z"
           inkscape:connector-curvature="0" />
        <path
           style="fill:#c87137;fill-opacity:1;stroke:#4c7ae3;stroke-width:2.5999999;stroke-linecap:round;stroke-linejoin:round;stroke-miterlimit:4;stroke-opacity:0;stroke-dasharray:none"
           id="path4673"
           d="m -1310.3097,-60.71981 c 8.8575,-1.95687 17.8087,-4.40525 26.9672,-2.95411 2.3704,0.37559 4.6581,1.15839 6.9872,1.73758 16.7454,6.59751 29.9099,19.71423 38.1911,35.62857 2.2037,4.23492 3.7366,8.78637 5.605,13.17956 9.9775,31.19173 8.1313,63.92636 4.6682,95.99191 0,0 -23.3641,11.56181 -23.3641,11.56181 l 0,0 c 4.0306,-31.63055 5.9989,-63.97534 -4.0381,-94.78271014 -1.8425,-4.24182996 -3.3511,-8.64489996 -5.5275,-12.72549986 -8.1797,-15.33628 -21.1717,-27.83971 -37.7105,-33.46672 -2.2583,-0.43343 -4.4885,-1.05464 -6.7748,-1.30029 -9.1231,-0.98022 -18.1475,1.65713 -26.8245,4.08243 0,0 21.8208,-16.95253 21.8208,-16.95253 z"
           inkscape:connector-curvature="0" />
        <path
           style="fill:#008000;fill-opacity:1;stroke:#4c7ae3;stroke-width:2.34105945;stroke-linecap:round;stroke-linejoin:round;stroke-miterlimit:4;stroke-opacity:0;stroke-dasharray:none"
           id="path4677"
           d="m -1797.4008,14.454764 c -9.514,-1.376073 -14.8231,-4.408938 -20.9516,-10.7228527 -7.1449,-8.705196 -10.0934,-19.1473973 -12.6835,-29.4163293 -2.6818,-10.051033 -4.5817,-20.373563 -8.6164,-30.10924 -5.4839,-7.858279 -14.062,-0.712762 21.8702,-12.47929 1.0189,-0.333638 1.0439,1.65996 1.6485,2.445181 2.8859,3.748208 4.0592,4.736415 7.571,8.36771 8.4727,7.077853 19.0207,15.902921 30.4178,19.238408 1.7979,0.526189 3.7221,0.643202 5.5831,0.964803 1.7682,-0.2224 3.6036,-0.19312 5.3045,-0.667184 1.8979,-0.528955 7.129,-3.096289 5.3572,-2.304361 -5.4816,2.450051 -10.4564,6.15876 -16.487,7.278935 -2.9508,0.548093 4.4536,-3.536461 6.5349,-5.430357 5.633,-5.125723 8.5604,-8.637749 13.6384,-14.237059 9.6208,-11.226525 19.194,-22.584876 26.7581,-34.968101 5.6158,-9.410572 8.1605,-7.973423 26.9687,-14.258017 0.3462,-0.11567 4.0746,5.532946 4.3773,5.936823 1.846,1.42144 2.7967,2.405514 5.2462,3.164648 6.7914,2.104753 14.7747,0.241798 21.4746,-1.007814 9.587,-1.80462 18.8648,-6.865087 28.947,-6.490167 1.1692,0.0435 2.2997,0.377578 3.4496,0.566373 3.7884,1.637545 7.0194,3.965981 11.3083,4.660024 3.5605,0.576149 7.4459,0.341468 11.0065,0.298934 7.1386,-0.405612 14.0783,-1.937955 21.1365,-2.835596 2.4732,-0.314542 7.3256,-1.197413 10.0264,-0.09394 1.0501,0.429008 1.6144,1.44627 2.4215,2.1694 -0.027,1.315475 0.3646,2.688648 -0.081,3.946416 -1.0043,2.836384 -5.3776,7.032469 -7.4296,8.960633 -5.4446,5.116175 -11.5611,9.638329 -17.6029,14.203302 -1.9472,2.221632 -6.5488,4.256616 -7.3885,7.318812 -0.037,0.135003 0.9249,-0.01098 2.0127,0.115966 0.7838,0.09147 1.5501,0.272562 2.3252,0.408839 0.7934,0.288967 1.5869,0.577935 2.3803,0.866902 l -22.1297,12.906562 0,0 c -0.7271,-0.207312 -1.4542,-0.414615 -2.1813,-0.621918 -2.4452,-0.560306 -21.8838,26.081687 -22.4757,23.398974 -0.7572,-3.432257 21.6924,-33.939806 23.3843,-35.928736 9.5309,-7.080099 19.7823,-14.141815 26.4799,-23.480439 -0.4361,-0.32668 -0.7533,-0.845014 -1.3083,-0.98005 -2.5944,-0.631341 -7.0278,0.11371 -9.2904,0.403013 -7.1369,0.912545 -14.1991,2.342083 -21.4373,2.56896 -4.8232,-0.04409 -7.199,0.204009 -11.75,-0.746636 -4.0643,-0.848963 -7.2422,-3.087629 -11.1127,-4.260497 -10.9688,-0.741238 -20.9899,4.404352 -31.505,6.299061 -10.4954,1.654319 -20.843,3.283305 -28.8776,-4.155354 -0.9736,-1.256302 -1.8287,-2.581283 -2.8381,-3.816175 -0.2118,-0.258991 -1.065,-0.519599 -0.7564,-0.690631 7.2621,-4.025833 14.8935,-7.528052 22.3489,-11.279279 0.484,-0.24356 -1.0692,0.38879 -1.4348,0.75611 -0.6844,0.687671 -1.0896,1.551597 -1.6344,2.327396 -7.8053,12.575824 -17.6218,24.091762 -27.3282,35.60007 -5.0717,5.757709 -7.7617,9.047896 -13.2761,14.408929 -1.9947,1.939246 -3.7569,4.14739 -6.2178,5.630669 -9.091,5.479396 -18.6361,10.386306 -28.2519,15.14522 -1.8132,0.897314 -3.8679,1.444996 -5.9223,1.767661 -1.8858,0.296185 -3.8327,0.04359 -5.7491,0.06547 -1.9393,-0.47523 -3.9467,-0.777299 -5.818,-1.425673 -11.7379,-4.066741 -21.9313,-12.640866 -30.9543,-20.032708 -3.7399,-3.70492 -4.8996,-4.689623 -8.1279,-8.450111 -0.7868,-0.916611 -3.2311,-2.0687 -2.2417,-2.823617 18.7469,-14.30345 19.1952,-19.288009 24.7995,-9.825497 3.8979,9.891963 5.5379,20.3883 8.3895,30.523863 2.5598,9.875458 5.3815,19.958404 12.3599,28.2912251 5.975,5.9016726 10.9912,8.31400225 20.0961,9.1127528 l -21.7634,13.4196071 z"
           inkscape:connector-curvature="0"
           sodipodi:nodetypes="cccccccscssssccccscccscsccccccscccccccccscscccccccccsscsccccccccccc" />
      </g>
    </g>
  </g>
</svg>
