<?xml version="1.0" encoding="UTF-8" standalone="no"?>
<!-- Created with Inkscape (http://www.inkscape.org/) -->

<svg
   xmlns:dc="http://purl.org/dc/elements/1.1/"
   xmlns:cc="http://creativecommons.org/ns#"
   xmlns:rdf="http://www.w3.org/1999/02/22-rdf-syntax-ns#"
   xmlns:svg="http://www.w3.org/2000/svg"
   xmlns="http://www.w3.org/2000/svg"
   xmlns:sodipodi="http://sodipodi.sourceforge.net/DTD/sodipodi-0.dtd"
   xmlns:inkscape="http://www.inkscape.org/namespaces/inkscape"
   width="826.5"
   height="826.5"
   id="svg4909"
   version="1.1"
   inkscape:version="0.48.4 r9939"
   sodipodi:docname="pyss15_keynote.svg">
  <defs
     id="defs4911" />
  <sodipodi:namedview
     id="base"
     pagecolor="#ffffff"
     bordercolor="#666666"
     borderopacity="1.0"
     inkscape:pageopacity="1"
     inkscape:pageshadow="2"
     inkscape:zoom="0.19717213"
     inkscape:cx="720.23677"
     inkscape:cy="1044.2276"
     inkscape:document-units="px"
     inkscape:current-layer="layer1"
     showgrid="false"
     fit-margin-top="0"
     fit-margin-left="0"
     fit-margin-right="0"
     fit-margin-bottom="0"
     inkscape:window-width="602"
     inkscape:window-height="623"
     inkscape:window-x="173"
     inkscape:window-y="120"
     inkscape:window-maximized="0" />
  <metadata
     id="metadata4914">
    <rdf:RDF>
      <cc:Work
         rdf:about="">
        <dc:format>image/svg+xml</dc:format>
        <dc:type
           rdf:resource="http://purl.org/dc/dcmitype/StillImage" />
        <dc:title />
      </cc:Work>
    </rdf:RDF>
  </metadata>
  <g
     inkscape:label="Layer 1"
     inkscape:groupmode="layer"
     id="layer1"
     transform="translate(-98.292068,-267.90167)">
    <g
       id="g4580"
       transform="matrix(2.3173902,0,0,2.3173902,11.740831,-306.44186)"
       style="fill:#000000;fill-opacity:1">
      <path
         inkscape:connector-curvature="0"
         d="m 189.86701,280.65323 c -6.98222,-0.55747 -13.49268,3.14273 -19.5201,6.14224 0.12223,-0.0148 0.46594,-0.11711 0.3667,-0.0443 -2.2383,1.64328 -4.62767,3.07918 -6.82064,4.7825 -7.11335,5.52506 -13.7055,12.0812 -18.54477,19.72837 -1.58526,2.50507 -2.7734,5.24041 -4.16011,7.86061 -0.87168,2.71106 -2.01033,5.35037 -2.61505,8.13317 -1.80108,8.28818 -0.88385,16.20676 2.83543,23.83643 3.17781,6.51892 5.62281,8.57749 10.37462,14.03255 2.42619,2.07223 4.70897,4.32521 7.27857,6.21669 8.72362,6.42145 18.83355,10.84506 29.20588,13.81403 9.95092,2.84836 13.93125,3.07328 24.2038,4.5742 16.73774,1.75298 33.6437,0.88059 50.00238,-3.17239 10.37319,-2.57003 12.09139,-3.66851 21.82837,-7.63372 3.12338,-1.69556 6.37397,-3.17529 9.37012,-5.08669 0.83423,-0.53219 1.30595,-1.48998 2.01725,-2.17789 2.30602,-2.2302 4.85078,-4.21855 7.0305,-6.57235 4.20289,-4.53856 7.78662,-9.75435 10.51807,-15.30431 1.31757,-2.67714 2.2317,-5.53461 3.34755,-8.30191 0.60659,-2.78381 1.50042,-5.52026 1.81979,-8.35144 0.89074,-7.89615 -0.78568,-15.87446 -5.86544,-22.15268 -4.62268,-5.7133 -7.91083,-6.8218 -14.23017,-10.52533 -9.47864,-3.68796 -10.82048,-4.6992 -21.13397,-6.61644 -3.97949,-0.73977 -8.02851,-1.03808 -12.04277,-1.55712 0,0 5.7649,-4.07564 5.7649,-4.07564 l 0,0 c 4.04628,0.52874 8.12669,0.84149 12.13883,1.58622 10.51446,1.95168 11.77402,2.92481 21.46204,6.64806 6.48594,3.77301 9.85051,4.89039 14.59737,10.7444 5.21159,6.42712 6.93213,14.60282 6.05031,22.69208 -0.31337,2.87462 -1.20537,5.6563 -1.80805,8.48445 -2.99004,7.55369 -3.34655,9.63594 -7.95903,16.46704 -3.1364,4.64502 -8.3795,10.78113 -12.88663,14.15385 -9.51224,7.11808 -14.25201,9.28823 -23.82529,14.37876 -9.73113,3.87692 -11.45627,4.95655 -21.81105,7.45255 -16.41441,3.95669 -33.35676,4.74649 -50.12176,2.96212 -10.29017,-1.51489 -14.39744,-1.76829 -24.37609,-4.61362 -10.49284,-2.99195 -20.70716,-7.44668 -29.54527,-13.91802 -2.60783,-1.90948 -4.92876,-4.18268 -7.39314,-6.27402 -4.84221,-5.51724 -7.34373,-7.61362 -10.59706,-14.21982 -3.82377,-7.76454 -4.80456,-15.83526 -3.02261,-24.29774 0.59526,-2.82685 1.73097,-5.51229 2.59646,-8.26844 1.3788,-2.65813 2.55684,-5.43043 4.13641,-7.97439 5.9508,-9.58404 15.53154,-18.6792 25.04895,-24.7011 4.19958,-2.65718 8.56326,-5.04569 12.84488,-7.56854 6.29774,-3.10288 13.06484,-6.84371 20.34066,-6.10902 0,0 -6.90084,4.82655 -6.90084,4.82655 z"
         id="path4566"
         style="fill:#000000;fill-opacity:1;stroke:#4c7ae3;stroke-width:2.5999999;stroke-linecap:round;stroke-linejoin:round;stroke-miterlimit:4;stroke-opacity:0;stroke-dasharray:none" />
      <path
         inkscape:connector-curvature="0"
         d="m 171.05633,376.12359 c -6.28131,4.32559 -12.42284,8.88284 -18.27967,13.77168 -2.15586,1.79955 -4.24892,3.67302 -6.37339,5.50953 -14.71077,13.30572 -26.34985,29.51779 -35.61605,46.99418 -2.28563,4.31077 -4.30021,8.75988 -6.45031,13.13982 -1.94809,4.63905 -4.02243,9.22709 -5.84426,13.91716 -3.656055,9.41202 -6.704567,18.73871 -9.351602,28.4798 -2.388616,8.7901 -4.441747,17.96861 -5.766229,26.99172 -0.595791,4.05885 -0.890346,8.15625 -1.335518,12.23438 -0.724963,10.16405 -0.17103,20.34102 1.290725,30.41175 0.624091,4.29966 1.731734,10.16999 2.953079,14.4358 0.51081,1.78411 1.210859,3.50853 1.816288,5.2628 0,0 -6.870269,3.78312 -6.870269,3.78312 l 0,0 c -0.57603,-1.79852 -1.24532,-3.56978 -1.72809,-5.39554 -1.136387,-4.29763 -2.171282,-10.33593 -2.741799,-14.64411 -1.349168,-10.18807 -1.849873,-20.46736 -1.02801,-30.72814 0.475296,-4.1111 0.80284,-8.24199 1.425887,-12.33331 1.376007,-9.03572 3.48657,-18.32852 5.890215,-27.13339 2.664381,-9.75998 5.712454,-19.11019 9.345956,-28.55501 1.804864,-4.69151 3.851544,-9.28638 5.777316,-13.92956 2.118771,-4.38155 4.105881,-8.82924 6.356321,-13.14463 9.07466,-17.40135 20.44206,-33.61409 34.91272,-46.95784 2.07562,-1.82702 4.11997,-3.6902 6.22686,-5.48106 5.64008,-4.79406 11.56546,-9.24949 17.57191,-13.57022 0,0 7.81792,-3.05893 7.81792,-3.05893 z"
         id="path4572"
         style="fill:#000000;fill-opacity:1;stroke:#4c7ae3;stroke-width:2.5999999;stroke-linecap:round;stroke-linejoin:round;stroke-miterlimit:4;stroke-opacity:0;stroke-dasharray:none" />
      <path
         inkscape:connector-curvature="0"
         d="m 296.39554,374.66755 c 0.34488,0.49023 0.67331,0.99246 1.03464,1.4707 2.33583,3.09167 4.9326,5.99109 7.37753,8.99465 4.17903,5.13387 4.3712,5.45225 8.66139,10.9784 9.62942,12.5587 19.2336,25.33684 25.92756,39.76734 1.46227,3.15228 2.65962,6.4208 3.98943,9.6312 6.05616,16.94937 9.09008,34.79566 10.05334,52.73317 0.16504,3.07325 0.18168,6.15267 0.27252,9.229 -0.11506,8.69539 0.0881,17.54613 -1.76683,26.10285 -0.32258,1.48806 -0.80792,2.93612 -1.21188,4.40417 0,0 -7.19882,3.41731 -7.19882,3.41731 l 0,0 c 0.43707,-1.45311 0.95702,-2.88384 1.31121,-4.35934 2.05322,-8.55345 2.03747,-17.45259 2.2705,-26.18476 -0.0535,-3.08227 -0.0262,-6.16701 -0.16063,-9.24681 -0.78091,-17.88631 -3.8204,-35.67258 -9.91587,-52.54038 -1.32931,-3.18711 -2.52714,-6.4323 -3.98794,-9.56133 -6.71212,-14.37736 -16.30746,-27.12124 -26.11325,-39.49357 -4.53792,-5.61864 -4.47097,-5.62841 -8.90964,-10.79806 -2.55007,-2.97003 -5.23817,-5.82651 -7.73318,-8.84358 -0.39336,-0.47567 -0.76215,-0.97113 -1.14322,-1.4567 0,0 7.24314,-4.24426 7.24314,-4.24426 z"
         id="path4574"
         style="fill:#000000;fill-opacity:1;stroke:#4c7ae3;stroke-width:2.5999999;stroke-linecap:round;stroke-linejoin:round;stroke-miterlimit:4;stroke-opacity:0;stroke-dasharray:none" />
      <path
         inkscape:connector-curvature="0"
         d="m 231.98947,395.27545 c -0.32106,0.24765 -2.23774,1.30389 -2.10689,1.85064 0.028,0.11688 0.63302,0.2789 0.76255,0.32205 0.96942,0.42155 3.13293,0.0319 3.76408,0.932 0.14893,0.21239 0.17589,0.48808 0.26384,0.73212 -0.0803,0.29755 -0.0957,0.62075 -0.24079,0.89267 -0.71125,1.33328 -2.35099,1.96152 -3.36676,3.01334 1.49119,0.29105 3.0104,0.39791 4.47344,0.83325 1.87565,1.23076 0.76605,2.62868 -0.2285,3.96898 -0.41185,0.77696 0.56487,1.17218 0.48363,1.95017 -0.0298,0.28566 -0.19672,0.5397 -0.29508,0.80954 -5.43197,4.43962 -12.17381,6.99447 -18.58177,9.67102 -5.90952,2.46835 -4.27765,1.78792 -10.25183,4.2305 -1.39046,0.58978 -7.13021,3.00929 -8.74425,3.74702 -0.96432,0.44076 -3.76285,1.94942 -2.85671,1.39888 5.2619,-3.19694 3.87713,-2.94625 7.61027,-3.36469 11.50455,-0.87233 22.78772,-3.42577 34.00924,-5.9879 7.63282,-1.82577 2.33301,-0.54403 8.95796,-2.17582 0.84581,-0.20833 1.68501,-0.44657 2.53863,-0.62021 0.37974,-0.0772 0.85874,-0.38077 1.15514,-0.13113 0.32001,0.26953 0.50463,0.99796 0.16632,1.24413 -2.69854,1.96359 -5.79717,3.3082 -8.69575,4.9623 -4.84268,2.35903 -9.8494,4.43979 -14.48632,7.19432 14.51037,-7.43321 5.35921,-3.90688 4.55588,-2.16641 -0.008,0.018 0.0537,-0.0308 0.0582,-0.0115 0.0528,0.22685 0.0667,0.46103 0.10002,0.69155 -0.18204,0.28775 -0.30678,0.62106 -0.54614,0.86323 -0.68276,0.69081 -2.99788,2.16625 -3.57358,2.54441 -2.87942,1.89143 -5.80978,3.67449 -8.78178,5.41567 -24.85824,14.24995 -5.91243,3.35448 -4.73023,2.76426 2.07588,-1.03639 -2.08801,1.17269 -1.55006,1.35701 0.20571,0.0705 0.35364,-0.28096 0.56709,-0.3224 0.63728,-0.12371 1.29372,-0.1096 1.94057,-0.16439 6.17963,-0.68289 12.24496,-2.07589 18.23812,-3.69345 0.38449,-0.0634 0.78256,-0.30963 1.15346,-0.19012 1.12015,0.36094 -0.14052,1.69564 -0.31827,1.86053 -0.47089,0.43681 -1.07424,0.70453 -1.61832,1.04586 -3.00658,1.88617 -0.75864,0.37075 -3.44178,2.23352 0.64359,-0.0458 -1.45133,0.87679 -1.12052,1.36314 0.10578,0.15554 0.36593,0.088 0.55087,0.12237 1.78781,0.33208 3.59665,0.38241 5.40669,0.5396 1.20885,0.25853 2.93224,0.48862 2.91704,2.13438 -0.0107,1.16161 -0.9987,2.17019 -1.64804,3.02545 -0.0455,0.0867 -0.49704,0.68352 -0.29151,0.94301 0.16278,0.20551 2.69147,0.71818 3.06789,0.82589 2.52151,1.15717 2.3357,3.04646 1.62444,5.36188 -1.18561,2.84756 -0.80899,3.45947 0.80467,5.89469 1.98304,2.96704 2.52194,5.81851 2.341,9.32314 -0.076,1.75321 -0.68515,3.4722 -0.59901,5.23614 0.0441,0.90312 0.2823,1.68897 0.49394,2.56413 0.78334,2.29187 1.3255,4.61787 1.19103,7.05738 -0.10165,1.84423 -0.34357,2.57847 -0.74448,4.38945 -0.88683,3.34541 -2.54449,6.44012 -3.28286,9.83086 -0.13473,0.61873 -0.20836,1.24919 -0.31254,1.87379 -0.3403,4.28839 1.08839,8.39627 2.18204,12.47979 1.28662,4.68837 1.56195,9.54171 2.15745,14.33912 0.52318,2.72219 0.23168,1.36398 0.87539,4.07445 0,0 -7.26952,3.92237 -7.26952,3.92237 l 0,0 c -0.66914,-2.75905 -0.36395,-1.37259 -0.91547,-4.1594 -0.57669,-4.76516 -0.76923,-9.59686 -2.0771,-14.24849 -1.14759,-4.17717 -2.61063,-8.367 -2.38787,-12.76091 0.0913,-0.64988 0.14817,-1.30553 0.27383,-1.94965 0.66672,-3.41759 2.34075,-6.5092 3.3278,-9.82676 1.0229,-4.24542 1.21788,-6.90307 -0.3527,-11.0506 -0.24476,-0.91218 -0.52967,-1.80578 -0.61374,-2.75323 -0.1587,-1.78835 0.44335,-3.52405 0.60367,-5.2894 0.31276,-3.36135 -0.14683,-5.99703 -2.10117,-8.8248 -1.60661,-2.37134 -2.48246,-3.73005 -1.17675,-6.5658 0.68919,-1.84247 1.34395,-3.32507 -0.95656,-4.16738 -1.24598,-0.31464 -3.84577,-0.57415 -3.82257,-2.37717 0.004,-0.29064 0.17184,-0.55534 0.25776,-0.833 0.3055,-0.39404 2.25848,-2.4889 1.96895,-2.87886 -0.40653,-0.54756 -1.85056,-0.69714 -2.26337,-0.78816 -1.10913,-0.0911 -8.00255,-0.0957 -6.78145,-2.72005 0.20255,-0.43533 0.64688,-0.70972 0.97032,-1.06459 2.3381,-1.71957 0.81124,-0.66979 3.41982,-2.27267 0.52033,-0.31973 0.99136,-0.73179 1.55243,-0.97296 0.3409,-0.14654 0.73041,-0.19398 1.10052,-0.16741 0.13662,0.01 0.42671,0.19567 0.31085,0.26873 -0.28993,0.18281 -0.6756,0.11616 -1.0134,0.17425 -6.04908,1.49532 -12.144,2.86697 -18.34568,3.55797 -0.73567,0.006 -1.49201,0.19103 -2.20703,0.0178 -0.8668,-0.20998 -1.7848,-0.84924 -1.07452,-1.7538 0.34976,-0.44542 0.84589,-0.76289 1.32888,-1.05863 1.59053,-0.97388 16.42762,-9.60264 4.83097,-2.82243 4.37696,-2.52811 8.64073,-5.22605 12.83281,-8.049 0.70119,-0.0407 -0.32449,-0.37958 -0.18021,-1.10265 0.0777,-0.38945 0.88904,-1.19647 1.0999,-1.32768 2.76628,-1.72148 5.61348,-3.30939 8.42023,-4.96409 4.72741,-2.62763 9.71148,-4.75995 14.54297,-7.18518 -1.87398,1.13317 -3.74795,2.26633 -5.62193,3.3995 0.3132,0.19675 0.94896,0.2205 0.93959,0.59025 -0.008,0.3208 -0.64167,0.0446 -0.95717,0.10322 -3.75002,0.69708 -7.41531,1.81082 -11.1597,2.53395 -11.40374,2.53347 -22.8567,5.12158 -34.52045,6.10081 -0.79786,-0.12964 -1.67685,-0.0152 -2.39357,-0.38894 -0.37864,-0.19745 -0.89725,-0.88859 -0.56094,-1.15174 5.87531,-4.59723 13.08666,-6.97146 19.81305,-9.92117 4.97743,-2.04366 9.96496,-4.0745 14.88331,-6.25826 1.19922,-0.53246 4.48402,-2.59417 3.57458,-1.64836 -1.28681,1.33827 -3.19322,1.89576 -4.76404,2.88538 -0.39843,0.25102 0.82981,-0.44545 1.24472,-0.66818 0.22711,-0.14194 0.69928,-0.25501 0.62013,-0.51086 -0.0515,-0.16661 -0.22089,-0.27107 -0.31377,-0.41869 -0.34397,-0.54674 -0.49562,-1.14492 -0.481,-1.79033 0.11208,-0.20453 0.19606,-0.42719 0.33624,-0.61359 0.20166,-0.26815 1.60637,-1.2522 1.14502,-1.73466 -0.12322,-0.12886 -0.31182,-0.17299 -0.46773,-0.25949 -1.30281,-0.3256 -3.85524,-0.38868 -4.78691,-1.33158 -0.21388,-0.21645 -0.30375,-0.52737 -0.45563,-0.79105 0.0655,-0.21375 0.0669,-0.45914 0.19653,-0.64126 0.21524,-0.3023 1.33688,-1.01822 1.55951,-1.17637 2.24945,-1.59801 -0.28704,0.19454 1.60904,-1.24938 0.15432,-0.11752 0.32361,-0.21395 0.48542,-0.32092 0.13322,-0.21523 0.17856,-0.18206 -0.23385,-0.2866 -1.11186,-0.28185 -2.31054,-0.21774 -3.36949,-0.72851 -0.24896,-0.15113 -0.53074,-0.25818 -0.74687,-0.45338 -1.54338,-1.39389 0.0987,-2.5593 1.28112,-3.28621 0,0 7.84505,-3.06954 7.84505,-3.06954 z"
         id="path4578"
         style="fill:#000000;fill-opacity:1;stroke:#4c7ae3;stroke-width:2.5999999;stroke-linecap:round;stroke-linejoin:round;stroke-miterlimit:4;stroke-opacity:0;stroke-dasharray:none" />
    </g>
  </g>
</svg>
